<?xml version="1.0" encoding="utf-8"?>
<!-- Generator: Adobe Illustrator 27.5.0, SVG Export Plug-In . SVG Version: 6.00 Build 0)  -->
<svg version="1.1" xmlns="http://www.w3.org/2000/svg" xmlns:xlink="http://www.w3.org/1999/xlink" x="0px" y="0px"
	 viewBox="0 0 500 500" style="enable-background:new 0 0 500 500;" xml:space="preserve">
<g id="Background_Complete">
	<g>
		<g>
			<g>
				<g>
					<g>
						<path style="fill:#E0E0E0;" d="M262.424,116.818c-0.029-0.075,1.21-0.283,3.197-1.454c1.909-1.166,4.673-3.643,5.668-7.938
							c0.24-1.059,0.322-2.207,0.279-3.408c-0.087-1.204-0.37-2.421-0.736-3.72c-0.693-2.591-1.445-5.403-2.252-8.422
							c-1.61-6.051-3.441-12.934-5.465-20.537c-2.017-7.615-4.226-15.951-6.596-24.898c-0.592-2.238-1.193-4.514-1.805-6.826
							c-0.525-2.305-1.593-4.45-3.283-6.155c-1.671-1.691-3.875-2.928-6.281-3.389c-2.442-0.561-4.871-0.08-7.392,0.667
							c-20.139,5.299-42.273,11.122-65.506,17.234c-2.799,0.742-5.281,2.497-6.892,4.857c-1.637,2.344-2.356,5.27-2.05,8.064
							c0.133,1.383,0.581,2.775,0.937,4.19c0.368,1.405,0.735,2.804,1.1,4.197c0.73,2.787,1.454,5.551,2.172,8.292
							c2.867,10.961,5.633,21.535,8.268,31.609c1.315,5.036,2.597,9.948,3.843,14.721c0.552,2.417,1.357,4.623,2.934,6.377
							c1.487,1.77,3.492,3.052,5.628,3.708c4.376,1.546,8.725-0.547,12.882-1.448c4.159-1.081,8.151-2.118,11.962-3.108
							c15.217-3.928,27.544-7.109,36.113-9.321c4.236-1.071,7.54-1.908,9.831-2.487c1.095-0.266,1.946-0.473,2.563-0.623
							C262.122,116.863,262.424,116.818,262.424,116.818s-0.286,0.109-0.857,0.276c-0.611,0.172-1.454,0.41-2.538,0.716
							c-2.28,0.62-5.569,1.515-9.785,2.662c-8.551,2.282-20.851,5.565-36.035,9.617c-3.806,1.009-7.793,2.067-11.946,3.168
							c-2.08,0.548-4.201,1.107-6.362,1.676c-2.232,0.546-4.663,0.541-6.945-0.185c-2.279-0.691-4.42-2.05-6.016-3.934
							c-1.677-1.822-2.589-4.332-3.128-6.699c-1.259-4.769-2.554-9.678-3.882-14.711c-2.652-10.069-5.436-20.638-8.322-31.594
							c-0.721-2.74-1.448-5.503-2.18-8.289c-0.366-1.393-0.734-2.792-1.103-4.196c-0.349-1.397-0.81-2.799-0.966-4.333
							c-0.332-3.018,0.445-6.178,2.209-8.708c1.736-2.546,4.422-4.446,7.441-5.245c23.24-6.086,45.381-11.885,65.525-17.161
							c2.434-0.725,5.229-1.282,7.789-0.659c2.578,0.503,4.931,1.832,6.714,3.647c1.797,1.808,2.952,4.181,3.475,6.54
							c0.603,2.314,1.197,4.593,1.781,6.833c2.329,8.957,4.5,17.304,6.482,24.927c1.972,7.617,3.757,14.511,5.327,20.573
							c0.78,3.026,1.506,5.845,2.175,8.442c0.349,1.283,0.637,2.574,0.709,3.814c0.031,1.242-0.069,2.426-0.33,3.514
							c-1.084,4.411-3.965,6.891-5.934,8.021c-1.015,0.578-1.854,0.895-2.424,1.062
							C262.723,116.758,262.424,116.818,262.424,116.818z"/>
					</g>
				</g>
			</g>
		</g>
		<g>
			<g>
				<g>
					<g>
						<g>
							<g>
								<path style="fill:#E0E0E0;" d="M236.08,91.222c0.003,0.014-0.205,0.083-0.607,0.203c-0.438,0.126-1.026,0.295-1.765,0.507
									c-1.58,0.435-3.805,1.048-6.556,1.806c-5.605,1.504-13.341,3.58-22.046,5.917l-0.18,0.048l-0.073-0.172
									c-0.473-1.124-0.973-2.314-1.481-3.52c-4.302-10.315-8.141-19.52-10.65-25.536l0.161,0.079
									c-2.493,0.633-4.483,1.139-5.892,1.497c-0.659,0.159-1.18,0.285-1.572,0.38c-0.358,0.082-0.546,0.119-0.549,0.106
									c-0.003-0.012,0.177-0.074,0.529-0.179c0.388-0.112,0.903-0.261,1.554-0.449c1.401-0.387,3.381-0.934,5.86-1.618
									l0.114-0.032l0.047,0.111c2.543,6.002,6.434,15.185,10.795,25.475c0.506,1.206,1.007,2.397,1.479,3.52l-0.252-0.124
									c8.719-2.283,16.468-4.312,22.082-5.782c2.765-0.704,5.001-1.274,6.59-1.679c0.748-0.182,1.342-0.326,1.785-0.434
									C235.861,91.252,236.076,91.209,236.08,91.222z"/>
							</g>
						</g>
					</g>
				</g>
				<g>
					<g>
						<g>
							<g>
								<path style="fill:#E0E0E0;" d="M202.449,93.259c-0.002-0.006,0.049-0.026,0.151-0.059c0.122-0.037,0.271-0.083,0.453-0.139
									c0.43-0.123,1.019-0.29,1.766-0.503c1.576-0.433,3.82-1.049,6.625-1.819c5.694-1.53,13.659-3.669,22.878-6.145l-0.153,0.217
									c-0.343-4.034-0.715-8.396-1.099-12.911c-0.195-2.323-0.387-4.605-0.57-6.78l0.267,0.188
									c-10.723,2.813-20.187,5.296-27.007,7.086c-3.377,0.867-6.097,1.566-8.007,2.056c-0.918,0.227-1.64,0.406-2.163,0.535
									c-0.229,0.052-0.414,0.095-0.563,0.129c-0.127,0.027-0.193,0.038-0.195,0.031c-0.002-0.006,0.061-0.03,0.184-0.069
									c0.146-0.044,0.328-0.099,0.553-0.167c0.518-0.147,1.234-0.349,2.144-0.607c1.902-0.52,4.611-1.261,7.974-2.181
									c6.81-1.824,16.262-4.356,26.97-7.225l0.246-0.066l0.021,0.254c0.184,2.175,0.378,4.457,0.575,6.78
									c0.378,4.515,0.743,8.878,1.081,12.913l0.014,0.173l-0.168,0.044c-9.235,2.416-17.213,4.504-22.917,5.996
									c-2.818,0.721-5.073,1.297-6.656,1.702c-0.755,0.185-1.349,0.331-1.783,0.438c-0.186,0.042-0.338,0.076-0.463,0.104
									C202.505,93.257,202.451,93.265,202.449,93.259z"/>
							</g>
						</g>
					</g>
				</g>
				<g>
					<g>
						<g>
							<g>
								<path style="fill:#E0E0E0;" d="M215.041,105.814c-0.038,0.012-0.113-0.266-0.371-0.691
									c-0.255-0.417-0.749-0.991-1.566-1.309c-0.796-0.327-1.948-0.315-2.881,0.352c-0.934,0.633-1.528,1.964-1.179,3.238
									c0.327,1.281,1.503,2.143,2.628,2.23c1.142,0.117,2.148-0.444,2.678-1.122c0.553-0.682,0.697-1.424,0.712-1.913
									C215.075,106.1,215.003,105.822,215.041,105.814c0.018-0.007,0.148,0.258,0.188,0.782c0.037,0.513-0.064,1.326-0.639,2.102
									c-0.549,0.77-1.657,1.439-2.954,1.33c-1.276-0.074-2.636-1.048-3.009-2.515c-0.402-1.459,0.297-2.979,1.368-3.674
									c1.072-0.737,2.366-0.704,3.224-0.308c0.883,0.389,1.374,1.046,1.597,1.51C215.043,105.516,215.06,105.811,215.041,105.814z
									"/>
							</g>
						</g>
					</g>
				</g>
				<g>
					<g>
						<g>
							<g>
								<path style="fill:#E0E0E0;" d="M235.01,100.52c-0.038,0.011-0.113-0.266-0.371-0.691c-0.255-0.418-0.748-0.991-1.566-1.309
									c-0.796-0.327-1.947-0.315-2.881,0.352c-0.934,0.633-1.528,1.964-1.178,3.238c0.327,1.281,1.503,2.142,2.628,2.23
									c1.142,0.117,2.148-0.444,2.678-1.122c0.553-0.682,0.697-1.424,0.712-1.913C235.044,100.806,234.972,100.529,235.01,100.52
									c0.018-0.007,0.148,0.258,0.188,0.782c0.037,0.513-0.064,1.326-0.639,2.102c-0.549,0.77-1.657,1.439-2.954,1.33
									c-1.276-0.073-2.636-1.048-3.009-2.515c-0.402-1.459,0.297-2.979,1.368-3.674c1.072-0.737,2.367-0.704,3.225-0.308
									c0.883,0.39,1.374,1.046,1.597,1.51C235.012,100.222,235.03,100.517,235.01,100.52z"/>
							</g>
						</g>
					</g>
				</g>
			</g>
		</g>
	</g>
	<g>
		<g>
			<g>
				<g>
					<g>
						<g>
							<path style="fill:#F5F5F5;" d="M416.678,475.652c-22.447-11.043-31.088-36.62-33.92-60.371
								c-0.473-3.964-1.546-8.055-0.202-11.805c1.345-3.748,5.358-6.787,9.145-5.668c3.141,0.928,4.941,4.139,7.013,6.704
								c2.756,3.414,6.481,6.016,10.608,7.412c2.712,0.917,5.941,1.236,8.211-0.513c3.113-2.4,2.791-7.162,2.163-11.081
								c-1.171-7.304-2.34-14.608-3.51-21.91c-0.628-3.918-1.255-7.922-0.608-11.832c0.647-3.91,2.811-7.783,6.382-9.403
								c3.572-1.619,8.516-0.177,9.895,3.541c0.574,1.547,0.503,3.256,0.863,4.867c0.359,1.612,1.395,3.297,3.011,3.512
								c1.636,0.219,3.035-1.134,4.031-2.463c3.44-4.583,5.402-10.108,7.189-15.577c1.787-5.469,3.48-11.047,6.49-15.931
								c3.009-4.885,7.564-9.09,13.132-10.272c5.57-1.182,12.088,1.365,14.355,6.661c2.274,5.311-0.089,11.418-2.911,16.434
								c-4.187,7.443-9.445,14.263-15.557,20.181c-1.101,1.068-2.296,2.222-2.545,3.748c-0.45,2.746,2.428,4.962,5.142,5.425
								c3.074,0.524,6.199-0.268,9.313-0.378c3.114-0.11,6.635,0.729,8.236,3.442c2.223,3.762-0.483,8.48-3.359,11.74
								c-5.759,6.528-12.633,12.042-20.227,16.228c-2.723,1.5-5.617,2.893-7.632,5.278c-2.015,2.386-2.877,6.127-1.047,8.673
								c1.832,2.55,5.576,2.879,8.513,1.853c2.935-1.025,5.389-3.082,8.102-4.612c5.077-2.864,12.096-3.563,16.265,0.565
								c2.74,2.713,3.596,6.947,3.009,10.773c-0.585,3.827-2.43,7.329-4.455,10.609c-7.081,11.465-16.885,21.327-28.724,27.586
								C441.211,475.33,429.805,478.285,416.678,475.652"/>
						</g>
					</g>
				</g>
			</g>
		</g>
		<g>
			<g>
				<g>
					<g>
						<g>
							<g>
								<path style="fill:#E0E0E0;" d="M420.499,459.902c1.644-12.459,4.578-25.965,8.132-39.987
									c0.902-3.502,1.792-6.962,2.67-10.372c0.884-3.402,1.761-6.776,2.822-10.023c2.095-6.505,4.604-12.599,7.168-18.309
									c2.561-5.714,5.201-11.042,7.704-16.006c2.516-4.961,4.948-9.541,7.342-13.62c4.764-8.181,9.38-14.312,12.72-18.391
									c1.666-2.047,3.01-3.591,3.936-4.626c0.446-0.492,0.796-0.879,1.059-1.17c0.242-0.26,0.37-0.389,0.38-0.381
									c0.01,0.008-0.1,0.154-0.323,0.431c-0.25,0.303-0.583,0.706-1.005,1.218c-0.888,1.066-2.196,2.639-3.827,4.71
									c-3.267,4.129-7.801,10.286-12.495,18.475c-2.36,4.085-4.759,8.667-7.247,13.633c-2.479,4.973-5.094,10.303-7.633,16.01
									c-2.539,5.704-5.025,11.781-7.099,18.253c-1.051,3.231-1.916,6.576-2.8,9.987c-0.876,3.409-1.765,6.867-2.665,10.367
									c-3.551,14.011-6.497,27.48-8.173,39.897"/>
							</g>
						</g>
					</g>
				</g>
			</g>
		</g>
		<g>
			<g>
				<g>
					<g>
						<g>
							<g>
								<path style="fill:#E0E0E0;" d="M434.325,399.46c-0.047,0.015-0.272-0.56-0.641-1.614c-0.373-1.052-0.862-2.592-1.438-4.503
									c-1.155-3.82-2.571-9.15-4.109-15.032c-1.539-5.886-3.026-11.18-4.236-14.972c-0.6-1.898-1.101-3.429-1.461-4.483
									c-0.354-1.057-0.528-1.65-0.481-1.669c0.047-0.018,0.31,0.54,0.746,1.568c0.442,1.025,1.02,2.535,1.683,4.418
									c1.341,3.763,2.913,9.058,4.453,14.949c1.503,5.809,2.863,11.064,3.901,15.079c0.48,1.811,0.887,3.337,1.213,4.561
									C434.238,398.84,434.373,399.444,434.325,399.46z"/>
							</g>
						</g>
					</g>
				</g>
			</g>
		</g>
		<g>
			<g>
				<g>
					<g>
						<g>
							<g>
								<path style="fill:#E0E0E0;" d="M483.306,382.278c0.009,0.05-0.696,0.243-1.975,0.55c-1.276,0.314-3.126,0.759-5.392,1.382
									c-4.542,1.209-10.758,3.099-17.525,5.484c-6.765,2.398-12.794,4.828-17.104,6.712c-2.163,0.927-3.893,1.724-5.092,2.268
									c-1.197,0.549-1.87,0.831-1.894,0.786c-0.023-0.046,0.608-0.415,1.769-1.045c1.163-0.623,2.864-1.495,5.005-2.487
									c4.268-2.011,10.288-4.527,17.073-6.933c6.787-2.391,13.051-4.21,17.64-5.292c2.29-0.56,4.163-0.929,5.462-1.156
									C482.574,382.326,483.296,382.227,483.306,382.278z"/>
							</g>
						</g>
					</g>
				</g>
			</g>
		</g>
		<g>
			<g>
				<g>
					<g>
						<g>
							<g>
								<path style="fill:#E0E0E0;" d="M420.977,458.879c-0.021,0.014-0.172-0.18-0.44-0.562c-0.309-0.458-0.686-1.016-1.143-1.692
									c-0.986-1.473-2.357-3.643-4.016-6.346c-3.322-5.403-7.675-13.011-12.366-21.471c-4.694-8.463-8.97-16.101-12.174-21.566
									c-1.566-2.655-2.856-4.839-3.814-6.462c-0.411-0.705-0.75-1.287-1.028-1.765c-0.228-0.407-0.338-0.628-0.317-0.643
									c0.022-0.012,0.172,0.181,0.441,0.563c0.309,0.457,0.686,1.014,1.143,1.69c0.986,1.474,2.357,3.643,4.016,6.346
									c3.322,5.403,7.675,13.011,12.367,21.474c4.692,8.461,8.968,16.098,12.172,21.563c1.568,2.654,2.856,4.839,3.814,6.46
									c0.412,0.706,0.751,1.288,1.028,1.765C420.888,458.645,420.998,458.866,420.977,458.879z"/>
							</g>
						</g>
					</g>
				</g>
			</g>
		</g>
		<g>
			<g>
				<g>
					<g>
						<g>
							<g>
								<path style="fill:#E0E0E0;" d="M484.669,426.973c0.01,0.023-0.205,0.152-0.623,0.376c-0.497,0.256-1.107,0.57-1.846,0.952
									c-1.708,0.859-4.014,2.019-6.819,3.429c-5.757,2.897-13.662,6.99-22.391,11.523c-8.731,4.537-16.682,8.56-22.501,11.338
									c-2.909,1.39-5.274,2.491-6.923,3.219c-0.764,0.331-1.393,0.604-1.905,0.827c-0.439,0.182-0.675,0.265-0.685,0.242
									c-0.01-0.023,0.205-0.152,0.623-0.378c0.496-0.255,1.106-0.569,1.846-0.95c1.708-0.86,4.013-2.018,6.817-3.429
									c5.757-2.896,13.663-6.99,22.395-11.525c8.729-4.535,16.679-8.558,22.497-11.336c2.909-1.391,5.274-2.491,6.924-3.219
									c0.764-0.331,1.392-0.605,1.905-0.827C484.423,427.033,484.658,426.95,484.669,426.973z"/>
							</g>
						</g>
					</g>
				</g>
			</g>
		</g>
	</g>
	<g>
		<g>
			<g>
				<path style="fill:#EBEBEB;" d="M32.474,113.686c0,0-11.157,2.712-2.308,26.853c8.848,24.141,15.522,36.371,15.522,36.371
					s1.419,5.527-3.124,5.809c-4.542,0.283-14.137-2.462-16.775,2.735c-2.736,5.391,0.716,11.206,8.456,16.878
					c7.74,5.672,24.242,18.721,25.729,19.906c1.461,1.164,2.746,3.812-0.318,4.5c-3.064,0.688-25.348,0.321-24.889,10.906
					c0.459,10.585,24.618,22.842,27.233,24.233c2.615,1.391,3.131,2.633,2.725,4.112c-0.406,1.479-7.885,0.649-14.227,0.805
					c-6.343,0.155-13.67,1.447-12.893,7.532c0.776,6.085,14.245,20.301,50.163,28.263l16.885,2.6l10.958-13.205
					c21.73-29.688,22.466-49.257,19.033-54.341c-3.432-5.084-9.79-1.218-14.657,2.851c-4.867,4.069-9.939,9.628-11.219,8.785
					c-1.281-0.843-1.714-2.116-0.667-4.887c1.047-2.771,11.107-27.924,4.466-36.179c-6.641-8.255-23.141,6.729-25.897,8.233
					c-2.756,1.505-3.537-1.333-3.208-3.171c0.335-1.872,4.12-22.567,6.192-31.936c2.072-9.369,0.827-16.017-4.786-18.261
					c-5.412-2.164-10.809,6.23-14.408,9.016c-3.599,2.786-6.181-2.303-6.181-2.303s-3.057-13.592-12.343-37.569
					c-9.285-23.976-19.686-18.466-19.686-18.466"/>
			</g>
		</g>
		<g>
			<g>
				<g>
					<path style="fill:#E0E0E0;" d="M105.05,309.283c-6.75-17.635-18.221-49.181-28.21-76.213
						c-9.985-27.023-19.049-51.481-25.709-69.149c-3.333-8.815-6.034-15.956-7.909-20.915c-0.926-2.454-1.648-4.367-2.146-5.689
						c-0.234-0.637-0.416-1.13-0.546-1.484c-0.12-0.335-0.169-0.512-0.169-0.512s0.083,0.163,0.219,0.493
						c0.142,0.35,0.34,0.837,0.595,1.465c0.52,1.314,1.273,3.215,2.24,5.653c1.94,4.911,4.695,12.038,8.067,20.857
						c6.75,17.635,15.87,42.075,25.855,69.098c9.989,27.033,21.403,58.596,28.063,76.264"/>
				</g>
			</g>
		</g>
		<g>
			<g>
				<g>
					<path style="fill:#E0E0E0;" d="M39.057,189.834c0.017-0.033,0.422,0.137,1.142,0.472c0.722,0.332,1.751,0.843,3.016,1.486
						c2.528,1.291,5.975,3.163,9.741,5.297c3.706,2.118,7.057,4.034,9.621,5.499c1.159,0.653,2.138,1.204,2.924,1.647
						c0.692,0.386,1.068,0.615,1.052,0.648c-0.016,0.033-0.423-0.134-1.146-0.464c-0.721-0.335-1.75-0.845-3.01-1.502
						c-2.516-1.316-5.937-3.232-9.702-5.367c-3.719-2.09-7.083-3.981-9.656-5.428c-1.164-0.648-2.145-1.194-2.934-1.633
						C39.415,190.099,39.041,189.867,39.057,189.834z"/>
				</g>
			</g>
		</g>
		<g>
			<g>
				<g>
					<path style="fill:#E0E0E0;" d="M67.844,203.941c-0.131-0.066,3.416-7.342,7.92-16.249c4.506-8.91,8.264-16.077,8.394-16.011
						c0.131,0.066-3.415,7.34-7.921,16.25C71.733,196.839,67.974,204.007,67.844,203.941z"/>
				</g>
			</g>
		</g>
		<g>
			<g>
				<g>
					<path style="fill:#E0E0E0;" d="M81.308,246.138c-0.026-0.026,0.266-0.368,0.815-0.963c0.627-0.671,1.411-1.51,2.341-2.505
						c1.973-2.117,4.686-5.053,7.559-8.401c2.883-3.343,5.386-6.459,7.18-8.73c0.846-1.068,1.558-1.968,2.128-2.688
						c0.506-0.632,0.8-0.972,0.83-0.95c0.03,0.022-0.208,0.402-0.664,1.073c-0.456,0.67-1.133,1.628-1.996,2.793
						c-1.721,2.333-4.185,5.495-7.076,8.848c-2.882,3.358-5.646,6.262-7.692,8.315c-1.027,1.023-1.868,1.841-2.465,2.39
						C81.675,245.872,81.334,246.164,81.308,246.138z"/>
				</g>
			</g>
		</g>
		<g>
			<g>
				<g>
					<path style="fill:#E0E0E0;" d="M52.463,239.109c0.008-0.036,0.419,0.023,1.156,0.16c0.845,0.171,1.883,0.381,3.107,0.629
						c2.618,0.553,6.227,1.353,10.206,2.269c3.98,0.916,7.576,1.774,10.173,2.421c1.209,0.313,2.234,0.577,3.069,0.793
						c0.722,0.199,1.117,0.326,1.109,0.361c-0.008,0.035-0.419-0.023-1.156-0.16c-0.845-0.171-1.883-0.381-3.107-0.629
						c-2.618-0.553-6.228-1.353-10.208-2.269c-3.979-0.916-7.574-1.773-10.171-2.421c-1.209-0.312-2.235-0.577-3.069-0.793
						C52.85,239.272,52.455,239.145,52.463,239.109z"/>
				</g>
			</g>
		</g>
		<g>
			<g>
				<g>
					<path style="fill:#E0E0E0;" d="M59.617,277.872c0.008-0.036,0.533,0.044,1.477,0.219c1.038,0.206,2.377,0.472,3.985,0.791
						c3.36,0.69,7.993,1.68,13.104,2.805c5.112,1.125,9.733,2.173,13.072,2.957c1.593,0.386,2.92,0.707,3.949,0.956
						c0.93,0.237,1.44,0.385,1.432,0.421c-0.008,0.036-0.533-0.044-1.477-0.219c-1.038-0.206-2.377-0.472-3.985-0.791
						c-3.36-0.69-7.994-1.68-13.106-2.805c-5.11-1.125-9.731-2.172-13.07-2.957c-1.593-0.385-2.92-0.706-3.948-0.955
						C60.12,278.056,59.61,277.908,59.617,277.872z"/>
				</g>
			</g>
		</g>
		<g>
			<g>
				<g>
					<path style="fill:#E0E0E0;" d="M95.805,285.576c-0.027-0.025,0.331-0.467,1.002-1.246c0.736-0.847,1.696-1.952,2.853-3.283
						c2.406-2.774,5.715-6.618,9.247-10.965c3.54-4.343,6.64-8.358,8.864-11.28c1.069-1.403,1.957-2.567,2.637-3.459
						c0.626-0.814,0.986-1.255,1.016-1.234c0.03,0.021-0.274,0.503-0.849,1.355c-0.575,0.852-1.426,2.072-2.503,3.562
						c-2.149,2.982-5.208,7.041-8.754,11.391c-3.538,4.354-6.897,8.167-9.378,10.88c-1.244,1.353-2.261,2.438-2.981,3.173
						C96.242,285.206,95.832,285.601,95.805,285.576z"/>
				</g>
			</g>
		</g>
	</g>
</g>
<g id="Background_Simple" style="display:none;">
	<path style="display:inline;fill:#EBEBEB;" d="M456.016,132.886l-2.689-4.376c-22.672-36.892-63.663-59.132-106.88-56.433
		c-5.555,0.347-11.087,1.09-16.545,2.243c-39.294,8.306-73.484,37.648-87.656,75.226c-8.335,22.101-10.663,47.546-26.48,65.089
		c-20.585,22.83-55.532,23.547-86.257,22.602c-30.726-0.946-65.696-0.139-86.18,22.781c-12.829,14.355-16.906,34.768-15.872,53.992
		c2.739,50.896,38.654,96.405,84.33,119.025c45.676,22.62,99.453,24.646,149.442,14.696
		c70.029-13.94,136.625-52.221,176.655-111.348C477.913,277.257,488.044,196.703,456.016,132.886z"/>
</g>
<g id="Table">
	<g>
		<g>
			<path style="fill:#263238;" d="M465.139,477.483c0,0.144-96.329,0.26-215.129,0.26c-118.842,0-215.15-0.117-215.15-0.26
				s96.308-0.26,215.15-0.26C368.811,477.223,465.139,477.339,465.139,477.483z"/>
		</g>
	</g>
</g>
<g id="Screen">
	<g>
		<g>
			<g>
				<g>
					<g>
						<g>
							<g>
								<g>
									<g>
										<g>
											<path style="fill:#FFFFFF;" d="M418.595,65.582l-29.013-0.017c-3.89-0.002-7.046,3.294-7.046,7.36l-0.002,5.263
												c0,4.067-3.155,7.363-7.045,7.361l-56.552-0.033c-3.89-0.002-7.044-3.302-7.043-7.369l0.001-5.262
												c0-4.067-3.154-7.367-7.044-7.369l-10.203-0.007l-25.393-0.015c-12.611-0.007-22.839,10.213-22.841,22.824l-0.072,366.17
												c-0.003,12.606,10.21,22.826,22.815,22.834l149.34,0.087c12.61,0.008,22.838-10.212,22.841-22.823l0.072-366.172
												C441.412,75.81,431.2,65.59,418.595,65.582z"/>
										</g>
									</g>
									<g>
										<g>
											<g>
												<path style="fill:#263238;" d="M418.595,65.582c0,0,0.262,0.002,0.782,0.023c0.516,0.049,1.302-0.012,2.314,0.179
													c2.023,0.238,5.102,0.895,8.564,2.958c1.748,0.986,3.526,2.405,5.209,4.22c1.676,1.819,3.233,4.092,4.347,6.816
													c1.13,2.715,1.741,5.885,1.71,9.268c0.004,3.371,0.008,6.96,0.013,10.762c0.018,30.42,0.045,74.427,0.077,128.804
													c0.009,54.382,0.02,119.133,0.032,191.031c0,8.987,0,18.087,0,27.291c0,2.301,0,4.609,0,6.923
													c-0.026,2.319-0.175,4.706-0.875,6.964c-0.658,2.259-1.593,4.461-2.916,6.434c-1.317,1.971-2.921,3.754-4.755,5.277
													c-3.712,2.979-8.363,4.88-13.184,5.117c-4.787,0.14-9.54,0.035-14.348,0.065c-9.601-0.004-19.294-0.009-29.074-0.013
													c-19.56-0.01-39.466-0.02-59.668-0.03c-10.101-0.005-20.276-0.011-30.518-0.017c-5.121-0.003-10.259-0.006-15.413-0.009
													c-5.173,0.264-10.542-1.102-14.868-4.106c-4.346-2.983-7.554-7.493-9.05-12.5c-0.805-2.495-0.954-5.159-0.953-7.723
													c0.001-2.57,0.001-5.135,0.002-7.697c0.003-10.246,0.005-20.423,0.007-30.527c0.006-20.208,0.011-40.119,0.017-59.684
													c0.014-39.129,0.028-76.873,0.041-112.828c0.018-35.955,0.034-70.121,0.05-102.096
													c0.01-15.988,0.019-31.427,0.028-46.269c0.001-1.855,0.002-3.701,0.004-5.538c0.013-0.92,0.079-1.85,0.129-2.769
													c0.161-0.908,0.231-1.833,0.467-2.721c0.836-3.575,2.49-6.92,4.802-9.674c2.33-2.738,5.252-4.909,8.467-6.328
													c3.213-1.45,6.743-1.961,10.149-1.919c6.798,0.008,13.433,0.015,19.9,0.023c3.233,0.004,6.425,0.008,9.574,0.012
													c1.574,0.002,3.138,0.004,4.691,0.006c1.568-0.078,3.204,0.353,4.493,1.256c1.291,0.903,2.283,2.203,2.793,3.668
													c0.586,1.466,0.446,3.049,0.463,4.509c-0.001,0.743-0.001,1.484-0.002,2.222c0.002,0.741-0.025,1.475,0.071,2.176
													c0.181,1.413,0.778,2.766,1.704,3.821c0.907,1.071,2.151,1.836,3.488,2.166c0.675,0.168,1.347,0.216,2.057,0.203
													c0.704,0.001,1.405,0.002,2.103,0.003c2.793,0.004,5.54,0.008,8.24,0.011c10.8,0.016,20.851,0.031,30.103,0.044
													c4.626,0.008,9.052,0.015,13.272,0.022c1.047-0.018,2.114,0.048,3.109-0.039c1.003-0.114,1.961-0.46,2.794-0.982
													c1.676-1.043,2.814-2.774,3.2-4.6c0.209-0.913,0.173-1.845,0.179-2.772c0.002-0.924,0.003-1.834,0.005-2.731
													c0.012-0.891-0.044-1.787,0.12-2.662c0.15-0.87,0.445-1.699,0.861-2.446c0.823-1.503,2.159-2.638,3.645-3.221
													c1.499-0.651,3.094-0.454,4.534-0.484c5.851,0.016,10.804,0.029,14.808,0.04c3.998,0.016,7.049,0.029,9.106,0.037
													C417.544,65.559,418.595,65.582,418.595,65.582s-1.051,0.021-3.103,0.031c-2.058,0.006-5.108,0.015-9.106,0.027
													c-4.005,0.006-8.957,0.014-14.809,0.022c-1.456,0.034-3.014-0.152-4.457,0.484c-1.439,0.571-2.733,1.675-3.527,3.137
													c-0.401,0.726-0.686,1.531-0.829,2.376c-0.156,0.841-0.101,1.725-0.109,2.624c0.001,0.897,0.002,1.807,0.003,2.731
													c-0.004,0.916,0.037,1.876-0.177,2.825c-0.394,1.888-1.566,3.684-3.304,4.772c-0.864,0.545-1.861,0.908-2.905,1.028
													c-1.057,0.093-2.079,0.027-3.14,0.048c-4.22,0.002-8.646,0.004-13.272,0.006c-9.252,0.003-19.303,0.006-30.103,0.009
													c-2.7,0.001-5.447,0.001-8.24,0.002c-0.698,0-1.399,0-2.103,0c-0.697,0.015-1.446-0.033-2.149-0.211
													c-1.415-0.348-2.73-1.155-3.689-2.282c-0.977-1.111-1.608-2.535-1.801-4.023c-0.102-0.751-0.074-1.495-0.078-2.227
													c0-0.738-0.001-1.479-0.001-2.222c-0.019-1.49,0.112-2.992-0.446-4.373c-0.484-1.387-1.427-2.616-2.645-3.466
													c-1.232-0.85-2.725-1.251-4.261-1.177c-1.553,0-3.116,0-4.691,0c-3.148,0-6.34,0-9.573,0c-6.467,0-13.103,0-19.9,0
													c-3.376-0.036-6.808,0.467-9.961,1.891c-3.148,1.394-6.008,3.523-8.288,6.207c-2.262,2.699-3.877,5.976-4.692,9.475
													c-0.231,0.869-0.297,1.774-0.455,2.663c-0.047,0.904-0.111,1.803-0.123,2.719c0,1.837,0.001,3.682,0.001,5.537
													c0.003,14.842,0.006,30.282,0.009,46.269c0.003,31.976,0.006,66.142,0.01,102.096
													c-0.001,35.955-0.002,73.699-0.003,112.828c-0.002,19.565-0.004,39.476-0.007,59.684
													c-0.001,10.104-0.003,20.282-0.005,30.527c0,2.561-0.001,5.127-0.001,7.697c0.002,2.559,0.144,5.102,0.927,7.541
													c1.455,4.865,4.573,9.251,8.798,12.151c4.228,2.919,9.373,4.247,14.501,3.991c5.154,0.003,10.292,0.006,15.413,0.009
													c10.242,0.006,20.417,0.013,30.518,0.019c20.202,0.013,40.108,0.027,59.668,0.04c9.78,0.007,19.474,0.014,29.074,0.021
													c4.791-0.028,9.598,0.077,14.31-0.06c4.692-0.229,9.216-2.078,12.832-4.976c1.786-1.483,3.348-3.218,4.631-5.136
													c1.29-1.919,2.199-4.064,2.84-6.262c0.683-2.206,0.827-4.503,0.855-6.8c0.001-2.314,0.002-4.622,0.003-6.923
													c0.004-9.204,0.008-18.304,0.011-27.291c0.04-71.898,0.076-136.649,0.107-191.031
													c0.054-54.377,0.098-98.384,0.128-128.804c0.006-3.801,0.012-7.391,0.017-10.762c0.041-3.363-0.554-6.498-1.665-9.196
													c-1.096-2.704-2.632-4.966-4.289-6.779c-1.663-1.81-3.423-3.229-5.156-4.218c-3.431-2.069-6.491-2.745-8.506-3.004
													c-1.008-0.202-1.791-0.151-2.306-0.211C418.858,65.607,418.595,65.582,418.595,65.582z"/>
											</g>
										</g>
									</g>
								</g>
							</g>
						</g>
					</g>
				</g>
			</g>
			<g>
				<g>
					<g>
						<g>
							<g>
								<g>
									<path style="fill:#263238;" d="M283.386,102.556c0.001,0.098-3.772,0.209-8.426,0.248c-4.655,0.038-8.429-0.01-8.429-0.108
										c-0.001-0.098,3.771-0.209,8.426-0.248C279.611,102.41,283.386,102.458,283.386,102.556z"/>
								</g>
							</g>
						</g>
					</g>
				</g>
				<g>
					<g>
						<g>
							<g>
								<g>
									<path style="fill:#263238;" d="M283.422,106.869c0.001,0.098-3.772,0.209-8.426,0.247c-4.655,0.039-8.429-0.01-8.43-0.108
										c-0.001-0.098,3.771-0.209,8.427-0.247C279.647,106.722,283.421,106.771,283.422,106.869z"/>
								</g>
							</g>
						</g>
					</g>
				</g>
				<g>
					<g>
						<g>
							<g>
								<g>
									<path style="fill:#263238;" d="M283.458,111.181c0.001,0.098-3.772,0.209-8.426,0.247c-4.655,0.039-8.429-0.01-8.429-0.108
										c-0.001-0.098,3.771-0.209,8.426-0.248C279.683,111.035,283.457,111.083,283.458,111.181z"/>
								</g>
							</g>
						</g>
					</g>
				</g>
			</g>
		</g>
		<g>
			<rect x="263.694" y="384.901" style="fill:#F5F5F5;" width="75.048" height="75.048"/>
		</g>
		<g>
			<g>
				<g>
					<path style="fill:#E8505B;" d="M329.88,427.835c-6.107-8.526-19.079-14.367-29.619-12.798
						c-8.546,1.272-16.099,5.242-20.239,13.723c-1.169,2.395,0.329,5.236,2.975,5.551c14.213,1.697,28.633,1.65,42.834-0.145
						c2.193-0.277,4.799-0.884,4.95-3.596C330.835,429.587,330.453,428.636,329.88,427.835z"/>
				</g>
				<g style="opacity:0.5;">
					<g>
						<path style="fill:#FFFFFF;" d="M329.88,427.835c-6.107-8.526-19.079-14.367-29.619-12.798
							c-8.546,1.272-16.099,5.242-20.239,13.723"/>
					</g>
				</g>
				<g>
					<g>
						<path style="fill:#F5F5F5;" d="M296.138,427.414c-0.05,0.039-0.487-0.392-1.073-1.195c-0.573-0.802-1.285-2.031-1.618-3.54
							c-0.329-1.504-0.314-2.879-0.316-3.86c0.013-0.984,0.059-1.591,0.131-1.594c0.072-0.003,0.156,0.603,0.237,1.58
							c0.095,0.974,0.143,2.331,0.456,3.759c0.316,1.428,0.936,2.615,1.42,3.455C295.869,426.854,296.202,427.365,296.138,427.414z"
							/>
					</g>
				</g>
				<g>
					<g>
						<path style="fill:#F5F5F5;" d="M305.194,426.994c-0.157-0.016,0.069-2.425-0.25-5.364c-0.299-2.942-1.02-5.25-0.87-5.299
							c0.119-0.052,1.081,2.231,1.388,5.245C305.788,424.587,305.322,427.02,305.194,426.994z"/>
					</g>
				</g>
				<g>
					<g>
						<path style="fill:#F5F5F5;" d="M314.548,425.615c-0.145-0.063,0.558-1.679,0.729-3.799c0.196-2.119-0.217-3.83-0.064-3.868
							c0.12-0.053,0.786,1.68,0.583,3.913C315.612,424.095,314.657,425.688,314.548,425.615z"/>
					</g>
				</g>
			</g>
			<g>
				<g style="opacity:0.3;">
					<g>
						<path d="M303.529,415.441c0.03,0.048,0.052,0.102,0.081,0.15c0.001-0.002,0.003-0.005,0.004-0.007L303.529,415.441z"/>
					</g>
				</g>
			</g>
			<g>
				<g style="opacity:0.3;">
					<g>
						<path d="M292.357,417.59"/>
					</g>
				</g>
			</g>
		</g>
		<g>
			<rect x="263.694" y="142.286" style="fill:#F5F5F5;" width="75.923" height="113.808"/>
		</g>
		<g>
			<rect x="263.694" y="264.682" style="fill:#F5F5F5;" width="75.923" height="113.808"/>
		</g>
		<g>
			<rect x="346.84" y="243.189" style="fill:#F5F5F5;" width="75.923" height="106.259"/>
		</g>
		<g>
			<rect x="346.224" y="356.924" style="fill:#F5F5F5;" width="75.923" height="103.024"/>
		</g>
		<g>
			<rect x="346.84" y="142.286" style="fill:#F5F5F5;" width="75.923" height="94.005"/>
		</g>
		<g>
			<g>
				<g>
					<path style="fill:#FAFAFA;" d="M313.576,176.324c0,0.024,0.009,0.039,0.009,0.047v31.496c0,1.381-1.111,2.809-3.159,3.889
						c-2.04,1.078-5.024,1.817-8.747,1.825h-0.047c-7.453-0.015-11.906-2.944-11.906-5.714v-31.496c0-0.008,0.008-0.023,0.008-0.047
						c0-0.016-0.008-0.039-0.008-0.063c0.016-3.08,2.279-6.294,4.556-9.469c1.532-2.119,1.897-5.175,1.968-6.969
						c0.008-0.214,0.016-0.405,0.016-0.579h-0.206c-0.985,0-1.778-0.683-1.778-1.525v-1.333c0-0.85,0.793-1.532,1.778-1.532h11.191
						c0.738,0,1.374,0.382,1.643,0.929c0.087,0.19,0.135,0.389,0.135,0.603v1.333c0,0.842-0.794,1.525-1.778,1.525h-0.206
						c0,0.175,0.008,0.365,0.016,0.579c0.071,1.793,0.437,4.849,1.968,6.969c2.278,3.175,4.54,6.389,4.556,9.469
						C313.585,176.285,313.576,176.308,313.576,176.324z"/>
				</g>
				<g>
					<g>
						<path style="fill:#263238;" d="M313.576,176.324c0,0-0.004-0.109-0.028-0.322c-0.01-0.214-0.053-0.529-0.126-0.939
							c-0.162-0.817-0.549-2-1.318-3.4c-0.76-1.406-1.886-3.015-3.235-4.872c-1.351-1.932-1.93-4.627-1.994-7.549l-0.004-0.186
							l0.174,0.016c0.796,0.073,1.674-0.389,1.792-1.196c0.023-0.398,0.004-0.889,0.008-1.339c0.031-0.445-0.128-0.823-0.458-1.098
							c-0.324-0.273-0.756-0.409-1.208-0.394c-0.484,0.001-0.973,0.003-1.468,0.004c-0.99,0.003-2.002,0.005-3.036,0.008
							c-2.067,0.005-4.219,0.01-6.447,0.015c-0.532-0.026-1.027,0.13-1.376,0.488c-0.165,0.178-0.288,0.395-0.324,0.63
							c-0.035,0.212-0.011,0.546-0.017,0.82c0.004,0.275-0.007,0.605,0.01,0.839c0.032,0.238,0.14,0.466,0.311,0.649
							c0.35,0.377,0.864,0.543,1.435,0.508l0.237-0.014l-0.003,0.249c-0.017,1.271-0.139,2.555-0.419,3.841
							c-0.285,1.279-0.729,2.573-1.509,3.715c-1.523,2.183-3.204,4.389-4.13,6.99c-0.22,0.648-0.381,1.319-0.437,2
							c-0.035,0.668-0.019,1.409-0.022,2.118c0.001,1.434,0.001,2.883,0.002,4.345c0.001,2.924,0.001,5.899,0.002,8.916
							c-0.002,5.304-0.004,10.483-0.005,15.485c0.012,0.62-0.042,1.274,0.08,1.799c0.121,0.555,0.452,1.055,0.834,1.491
							c0.784,0.873,1.822,1.506,2.9,1.975c2.179,0.92,4.52,1.3,6.788,1.395c2.274,0.1,4.511-0.085,6.6-0.596
							c2.06-0.527,4.082-1.377,5.378-2.876c0.317-0.373,0.557-0.797,0.7-1.241c0.145-0.439,0.11-0.913,0.116-1.419
							c0.003-0.986,0.005-1.953,0.008-2.902c0.006-1.896,0.011-3.717,0.017-5.455c0.035-6.93,0.063-12.547,0.083-16.463
							c0.021-1.921,0.037-3.424,0.049-4.476C313.545,176.861,313.576,176.324,313.576,176.324c0.035-0.001,0.04,0.537,0.061,1.56
							c0.012,1.052,0.028,2.555,0.049,4.476c0.02,3.916,0.048,9.533,0.083,16.463c0.005,1.738,0.011,3.559,0.017,5.455
							c0.003,0.949,0.005,1.916,0.008,2.902c-0.004,0.475,0.04,1.015-0.127,1.542c-0.161,0.512-0.431,0.986-0.774,1.393
							c-1.403,1.63-3.487,2.491-5.6,3.045c-2.141,0.532-4.415,0.726-6.73,0.631c-2.311-0.092-4.702-0.469-6.967-1.419
							c-1.121-0.487-2.216-1.141-3.08-2.097c-0.421-0.479-0.799-1.041-0.949-1.704c-0.15-0.686-0.08-1.294-0.097-1.919
							c-0.002-5.002-0.004-10.181-0.005-15.485c0.001-3.016,0.001-5.992,0.002-8.916c0.001-1.462,0.001-2.91,0.002-4.345
							c0.005-0.726-0.013-1.411,0.027-2.158c0.061-0.734,0.234-1.445,0.466-2.124c0.974-2.714,2.689-4.935,4.206-7.104
							c1.44-2.168,1.798-4.839,1.864-7.278l0.234,0.234c-0.608,0.04-1.332-0.161-1.777-0.664c-0.227-0.246-0.382-0.566-0.425-0.905
							c-0.023-0.345-0.005-0.594-0.01-0.895c0.01-0.3-0.022-0.544,0.027-0.898c0.054-0.331,0.226-0.63,0.447-0.864
							c0.447-0.469,1.125-0.653,1.7-0.619c2.228,0.005,4.379,0.01,6.447,0.015c1.033,0.003,2.045,0.006,3.036,0.008
							c0.495,0.001,0.984,0.003,1.468,0.004c0.513-0.014,1.055,0.15,1.453,0.493c0.413,0.325,0.632,0.908,0.581,1.385
							c-0.009,0.471,0.013,0.891-0.021,1.388c-0.163,1.066-1.296,1.574-2.148,1.486l0.17-0.17c0.039,2.868,0.591,5.525,1.872,7.396
							c1.326,1.868,2.439,3.506,3.18,4.938c0.751,1.427,1.115,2.638,1.249,3.47c0.059,0.418,0.086,0.738,0.081,0.953
							C313.604,176.215,313.59,176.324,313.576,176.324z"/>
					</g>
				</g>
			</g>
			<g>
				<g>
					<path style="fill:#263238;" d="M306.411,159.167c0,0.144-2.231,0.26-4.982,0.26c-2.752,0-4.982-0.117-4.982-0.26
						s2.23-0.26,4.982-0.26C304.18,158.906,306.411,159.023,306.411,159.167z"/>
				</g>
			</g>
			<g>
				<path style="fill:#E8505B;" d="M312.58,180.532c-1.008-0.654-2.333-0.366-3.414,0.144c-1.081,0.51-2.101,1.23-3.275,1.418
					c-1.383,0.222-2.773-0.328-4.002-1.024c-1.229-0.695-2.388-1.551-3.712-2.023c-2.535-0.904-5.534-0.198-7.446,1.754v27.046
					c0,0,1.487,4.615,11.946,3.889c10.46-0.725,9.635-5.339,9.635-5.339L312.58,180.532z"/>
			</g>
		</g>
		<g>
			<g>
				<g>
					<path style="fill:#FAFAFA;" d="M393.412,395.246c0,0.024,0.008,0.039,0.008,0.047v31.29c0,1.372-1.104,2.79-3.138,3.863
						c-2.027,1.071-4.991,1.805-8.69,1.813h-0.047c-7.405-0.015-11.828-2.925-11.828-5.677v-31.29c0-0.008,0.008-0.023,0.008-0.047
						c0-0.015-0.008-0.039-0.008-0.063c0.016-3.06,2.264-6.253,4.527-9.408c1.522-2.105,1.884-5.142,1.955-6.923
						c0.008-0.213,0.016-0.402,0.016-0.576h-0.205c-0.978,0-1.766-0.678-1.766-1.515v-1.324c0-0.844,0.788-1.522,1.766-1.522h11.118
						c0.733,0,1.365,0.379,1.632,0.923c0.087,0.189,0.134,0.386,0.134,0.599v1.324c0,0.836-0.788,1.515-1.766,1.515h-0.205
						c0,0.174,0.008,0.363,0.016,0.576c0.071,1.782,0.435,4.818,1.956,6.923c2.263,3.155,4.51,6.348,4.526,9.408
						C393.421,395.207,393.412,395.231,393.412,395.246z"/>
				</g>
				<g>
					<g>
						<path style="fill:#263238;" d="M393.412,395.246c0,0-0.004-0.108-0.028-0.32c-0.01-0.212-0.053-0.525-0.126-0.933
							c-0.161-0.811-0.545-1.986-1.31-3.378c-0.755-1.397-1.873-2.995-3.214-4.84c-1.343-1.92-1.917-4.598-1.981-7.5l-0.004-0.186
							l0.174,0.016c0.791,0.073,1.662-0.386,1.779-1.187c0.023-0.395,0.004-0.883,0.008-1.33c0.031-0.442-0.127-0.817-0.454-1.089
							c-0.322-0.27-0.75-0.406-1.2-0.391c-0.481,0.002-0.967,0.003-1.459,0.004c-0.984,0.003-1.989,0.005-3.016,0.008
							c-2.054,0.005-4.191,0.01-6.405,0.015c-0.528-0.026-1.02,0.129-1.366,0.484c-0.164,0.177-0.286,0.392-0.322,0.625
							c-0.035,0.21-0.011,0.542-0.017,0.814c0.004,0.273-0.007,0.601,0.01,0.833c0.032,0.236,0.139,0.462,0.309,0.644
							c0.348,0.374,0.858,0.538,1.425,0.504l0.237-0.014l-0.003,0.249c-0.016,1.262-0.138,2.539-0.416,3.816
							c-0.283,1.27-0.724,2.556-1.499,3.691c-1.513,2.169-3.183,4.36-4.103,6.944c-0.219,0.644-0.379,1.31-0.434,1.987
							c-0.035,0.664-0.019,1.4-0.022,2.104c0.001,1.425,0.001,2.864,0.002,4.316c0.001,2.905,0.001,5.861,0.002,8.858
							c-0.002,5.27-0.004,10.415-0.005,15.384c0.012,0.616-0.042,1.266,0.08,1.787c0.12,0.551,0.449,1.048,0.828,1.481
							c0.778,0.867,1.81,1.496,2.88,1.961c2.165,0.914,4.49,1.291,6.743,1.386c2.259,0.099,4.481-0.084,6.556-0.592
							c2.047-0.523,4.055-1.368,5.342-2.857c0.315-0.37,0.553-0.791,0.695-1.233c0.144-0.436,0.109-0.907,0.115-1.41
							c0.003-0.979,0.005-1.941,0.008-2.883c0.006-1.884,0.012-3.693,0.017-5.42c0.035-6.884,0.063-12.465,0.083-16.356
							c0.021-1.908,0.037-3.401,0.049-4.447C393.382,395.78,393.412,395.246,393.412,395.246c0.035-0.001,0.04,0.533,0.061,1.55
							c0.012,1.046,0.028,2.538,0.049,4.447c0.02,3.891,0.048,9.471,0.083,16.356c0.005,1.727,0.011,3.536,0.017,5.42
							c0.003,0.943,0.005,1.904,0.008,2.883c-0.004,0.472,0.04,1.008-0.126,1.532c-0.16,0.509-0.429,0.98-0.769,1.385
							c-1.394,1.62-3.465,2.475-5.564,3.026c-2.127,0.528-4.387,0.721-6.687,0.627c-2.296-0.091-4.672-0.465-6.922-1.409
							c-1.114-0.484-2.202-1.133-3.06-2.084c-0.418-0.476-0.794-1.034-0.943-1.694c-0.149-0.682-0.079-1.285-0.097-1.907
							c-0.002-4.969-0.004-10.114-0.005-15.384c0.001-2.997,0.001-5.953,0.002-8.858c0.001-1.452,0.001-2.891,0.002-4.316
							c0.005-0.721-0.013-1.401,0.027-2.144c0.061-0.73,0.233-1.436,0.463-2.11c0.968-2.696,2.671-4.903,4.179-7.058
							c1.43-2.153,1.786-4.806,1.852-7.229l0.234,0.234c-0.604,0.04-1.324-0.16-1.766-0.661c-0.226-0.245-0.38-0.563-0.423-0.9
							c-0.023-0.343-0.005-0.591-0.01-0.889c0.01-0.299-0.022-0.54,0.027-0.892c0.054-0.33,0.224-0.627,0.444-0.859
							c0.444-0.467,1.119-0.649,1.69-0.615c2.213,0.005,4.351,0.01,6.405,0.015c1.026,0.003,2.032,0.006,3.016,0.008
							c0.492,0.001,0.978,0.003,1.459,0.004c0.51-0.014,1.049,0.149,1.444,0.49c0.41,0.323,0.628,0.902,0.578,1.377
							c-0.009,0.469,0.013,0.885-0.02,1.379c-0.162,1.06-1.289,1.565-2.135,1.477l0.17-0.17c0.039,2.849,0.587,5.489,1.86,7.347
							c1.317,1.856,2.422,3.484,3.159,4.906c0.746,1.418,1.108,2.621,1.24,3.447c0.059,0.415,0.086,0.733,0.08,0.947
							C393.44,395.138,393.426,395.246,393.412,395.246z"/>
					</g>
				</g>
			</g>
			<g>
				<g>
					<path style="fill:#263238;" d="M386.294,378.201c0,0.144-2.216,0.26-4.95,0.26c-2.734,0-4.95-0.117-4.95-0.26
						c0-0.144,2.216-0.26,4.95-0.26C384.078,377.94,386.294,378.057,386.294,378.201z"/>
				</g>
			</g>
			<g>
				<path style="fill:#E8505B;" d="M392.422,399.427c-1.001-0.65-2.318-0.364-3.392,0.143c-1.074,0.507-2.088,1.222-3.253,1.409
					c-1.374,0.221-2.755-0.326-3.976-1.017c-1.221-0.691-2.373-1.541-3.688-2.01c-2.518-0.898-5.498-0.196-7.398,1.743v26.87
					c0,0,1.477,4.584,11.868,3.864c10.391-0.72,9.573-5.305,9.573-5.305L392.422,399.427z"/>
			</g>
			<g style="opacity:0.5;">
				<g>
					<path style="fill:#FFFFFF;" d="M392.422,399.427c-1.001-0.65-2.318-0.364-3.392,0.143c-1.074,0.507-2.088,1.222-3.253,1.409
						c-1.374,0.221-2.755-0.326-3.976-1.017c-1.221-0.691-2.373-1.541-3.688-2.01c-2.518-0.898-5.498-0.196-7.398,1.743v26.87
						c0,0,1.477,4.584,11.868,3.864c10.391-0.72,9.573-5.305,9.573-5.305L392.422,399.427z"/>
				</g>
			</g>
		</g>
		<g>
			<g>
				<path style="fill:#E8505B;" d="M409.694,281.536c-0.586-0.309-1.361-0.186-2.103,0.248c-0.154,0.092-0.309,0.216-0.464,0.339
					c-4.451,3.463-10.695,5.626-17.558,5.626c-12.29,0-22.465-6.889-24.289-15.889v-1.702c0-0.676-0.547-1.224-1.222-1.224
					c-0.676,0-1.225,0.548-1.225,1.224v4.766c0,0.115,0.037,0.22,0.065,0.325c-0.818,1.871-1.305,3.857-1.305,5.946
					c0,10.388,11.006,18.826,24.607,18.826c11.406,0,21.019-5.934,23.802-14.004c0.032-0.03,0.061-0.091,0.061-0.123
					c0.341-0.711,0.527-1.452,0.527-2.071C410.652,282.773,410.343,281.907,409.694,281.536z"/>
			</g>
			<g style="opacity:0.3;">
				<path d="M364.365,276.504c0,0,11.581,26.655,42.968,7.974c0,0-8.094,8.4-18.644,10.442
					C379.161,296.765,365.012,291.384,364.365,276.504z"/>
			</g>
			<g>
				<path style="fill:#263238;" d="M410.552,282.88c-0.195,0.461-0.946,0.586-1.675,0.279c-0.73-0.31-1.162-0.936-0.969-1.397
					c0.197-0.464,0.947-0.587,1.676-0.277C410.313,281.793,410.747,282.418,410.552,282.88z"/>
			</g>
		</g>
		<g>
			<g>
				<g>
					<g>
						<g>
							<g>
								<path style="fill:#263238;" d="M422.256,110.994c0,0.005-0.085,0.011-0.247,0.017c-0.176,0.005-0.413,0.011-0.71,0.019
									c-0.634,0.01-1.527,0.024-2.63,0.041c-2.245,0.02-5.344,0.048-8.83,0.079l-0.072,0.001l-0.01-0.072
									c-0.068-0.467-0.14-0.961-0.213-1.462c-0.611-4.28-1.157-8.1-1.513-10.596l0.053,0.045c-0.995-0.005-1.79-0.008-2.352-0.011
									c-0.262-0.004-0.47-0.008-0.626-0.01c-0.142-0.004-0.216-0.008-0.216-0.014c0-0.005,0.074-0.01,0.216-0.016
									c0.156-0.004,0.363-0.01,0.626-0.018c0.562-0.009,1.357-0.022,2.352-0.038l0.046-0.001l0.007,0.046
									c0.371,2.494,0.938,6.311,1.573,10.588c0.073,0.501,0.145,0.995,0.212,1.462l-0.082-0.071
									c3.487-0.01,6.585-0.019,8.831-0.025c1.104,0.004,1.997,0.008,2.631,0.01c0.298,0.005,0.534,0.008,0.711,0.01
									C422.171,110.984,422.256,110.989,422.256,110.994z"/>
							</g>
						</g>
					</g>
				</g>
				<g>
					<g>
						<g>
							<g>
								<path style="fill:#263238;" d="M409.463,108.497c0-0.002,0.021-0.005,0.062-0.007c0.049-0.002,0.109-0.005,0.183-0.008
									c0.173-0.004,0.41-0.01,0.71-0.017c0.632-0.009,1.533-0.022,2.658-0.039c2.281-0.021,5.471-0.05,9.164-0.084l-0.078,0.066
									c0.263-1.544,0.546-3.214,0.84-4.942c0.152-0.889,0.301-1.762,0.444-2.595l0.082,0.096
									c-4.289,0.014-8.074,0.027-10.802,0.036c-1.349-0.003-2.435-0.005-3.198-0.006c-0.366-0.004-0.654-0.007-0.862-0.009
									c-0.091-0.003-0.164-0.005-0.223-0.006c-0.05-0.002-0.076-0.005-0.076-0.007c0-0.003,0.026-0.005,0.076-0.008
									c0.059-0.002,0.132-0.005,0.223-0.009c0.208-0.005,0.496-0.011,0.862-0.019c0.763-0.01,1.849-0.025,3.198-0.044
									c2.727-0.023,6.513-0.055,10.801-0.091l0.098-0.001l-0.017,0.097c-0.142,0.833-0.29,1.706-0.442,2.595
									c-0.296,1.728-0.582,3.397-0.847,4.941l-0.011,0.066l-0.067,0c-3.693,0.01-6.883,0.018-9.164,0.024
									c-1.125-0.003-2.026-0.006-2.658-0.008c-0.301-0.004-0.537-0.007-0.71-0.009c-0.074-0.002-0.134-0.004-0.183-0.006
									C409.484,108.501,409.463,108.499,409.463,108.497z"/>
							</g>
						</g>
					</g>
				</g>
				<g>
					<g>
						<g>
							<g>
								<path style="fill:#263238;" d="M412.962,114.419c-0.015,0.001-0.017-0.11-0.072-0.295c-0.055-0.181-0.184-0.444-0.46-0.642
									c-0.266-0.199-0.699-0.307-1.113-0.147c-0.411,0.146-0.763,0.587-0.755,1.098c-0.002,0.511,0.355,0.948,0.768,1.09
									c0.416,0.154,0.848,0.042,1.112-0.161c0.273-0.202,0.399-0.466,0.452-0.648C412.947,114.53,412.947,114.419,412.962,114.419
									c0.007-0.001,0.031,0.111-0.006,0.311c-0.036,0.196-0.153,0.491-0.443,0.725c-0.28,0.235-0.76,0.378-1.235,0.212
									c-0.471-0.151-0.886-0.648-0.883-1.234c-0.009-0.585,0.4-1.087,0.869-1.243c0.473-0.172,0.954-0.035,1.237,0.197
									c0.293,0.231,0.413,0.525,0.452,0.72C412.991,114.308,412.969,114.42,412.962,114.419z"/>
							</g>
						</g>
					</g>
				</g>
				<g>
					<g>
						<g>
							<g>
								<path style="fill:#263238;" d="M420.954,114.372c-0.015,0.001-0.016-0.11-0.072-0.295c-0.055-0.181-0.184-0.443-0.46-0.642
									c-0.266-0.2-0.699-0.307-1.113-0.147c-0.411,0.147-0.763,0.587-0.755,1.098c-0.002,0.511,0.355,0.948,0.768,1.09
									c0.416,0.154,0.848,0.042,1.112-0.16c0.273-0.202,0.399-0.466,0.452-0.648C420.939,114.483,420.939,114.372,420.954,114.372
									c0.007-0.001,0.031,0.111-0.005,0.311c-0.036,0.196-0.153,0.491-0.443,0.725c-0.28,0.235-0.76,0.378-1.235,0.212
									c-0.471-0.151-0.885-0.648-0.883-1.234c-0.009-0.585,0.4-1.087,0.869-1.243c0.473-0.172,0.955-0.034,1.237,0.197
									c0.293,0.231,0.413,0.525,0.452,0.72C420.983,114.261,420.962,114.373,420.954,114.372z"/>
							</g>
						</g>
					</g>
				</g>
				<g>
					<g>
						<g>
							<path style="fill:#E8505B;" d="M426.384,99.612c0.011,1.957-1.566,3.553-3.523,3.564c-1.957,0.011-3.553-1.566-3.565-3.523
								s1.566-3.553,3.523-3.564C424.777,96.078,426.373,97.655,426.384,99.612z"/>
						</g>
					</g>
				</g>
			</g>
			<g>
				<g>
					<path style="fill:#FFFFFF;" d="M423.277,98.268l-0.02,2.69l-0.623-0.005l0.016-2.19l-0.537-0.004l0.004-0.499L423.277,98.268z"
						/>
				</g>
			</g>
		</g>
		<g>
			<g>
				<g>
					<g>
						<path style="fill:#E8505B;" d="M395.513,460.004H292.15c-7.667,0-13.882-6.215-13.882-13.882v-6.653
							c0-7.667,6.215-13.882,13.882-13.882h103.363c7.667,0,13.882,6.215,13.882,13.882v6.653
							C409.395,453.788,403.18,460.004,395.513,460.004z"/>
					</g>
				</g>
				<g style="opacity:0.3;">
					<g>
						<path d="M395.513,460.004H292.15c-7.667,0-13.882-6.215-13.882-13.882v-6.653c0-7.667,6.215-13.882,13.882-13.882h103.363
							c7.667,0,13.882,6.215,13.882,13.882v6.653C409.395,453.788,403.18,460.004,395.513,460.004z"/>
					</g>
				</g>
			</g>
			<g>
				<g>
					<path style="fill:#E8505B;" d="M390.423,460.004H287.059c-7.667,0-13.882-6.215-13.882-13.882v-6.653
						c0-7.667,6.215-13.882,13.882-13.882h103.363c7.667,0,13.882,6.215,13.882,13.882v6.653
						C404.305,453.788,398.09,460.004,390.423,460.004z"/>
				</g>
			</g>
			<g>
				<g>
					<path style="fill:#FFFFFF;" d="M334.801,440.905c0,1.767-1.279,2.837-3.395,2.837h-2.011v2.464h-1.162v-8.138h3.173
						C333.523,438.069,334.801,439.138,334.801,440.905z M333.638,440.905c0-1.163-0.778-1.826-2.266-1.826h-1.977v3.651h1.977
						C332.86,442.731,333.638,442.068,333.638,440.905z"/>
				</g>
				<g>
					<path style="fill:#FFFFFF;" d="M341.287,444.173h-4.324l-0.896,2.034h-1.197l3.685-8.138h1.151l3.698,8.138h-1.221
						L341.287,444.173z M340.881,443.242l-1.755-3.988l-1.755,3.988H340.881z"/>
				</g>
				<g>
					<path style="fill:#FFFFFF;" d="M347.239,443.394v2.813h-1.151v-2.837l-3.232-5.301h1.244l2.605,4.29l2.616-4.29h1.151
						L347.239,443.394z"/>
				</g>
			</g>
		</g>
		<g>
			<g>
				<path style="fill:#455A64;" d="M304.182,303.412c0.59-3.823-0.406-7.866-2.703-10.979c-2.297-3.113-5.867-5.256-9.694-5.819
					c-0.358-0.053-0.755-0.084-1.053,0.122c-0.424,0.293-0.441,0.904-0.393,1.417c0.349,3.709,1.899,7.295,4.363,10.089
					c2.463,2.794,5.827,4.782,9.462,5.593"/>
			</g>
			<g>
				<g>
					<path style="fill:#E8505B;" d="M283.569,330.558c3.713,7.648,9.044,12.801,15.65,13.05c1.321,0.046,2.319-0.822,3.581-0.896
						c0.645,0.044,1.396,0.5,2.114,0.795c0.384,0.147,0.764,0.263,1.102,0.249c6.826-0.367,12.642-5.169,16.562-13.199
						c5.458-11.246,3.772-23.327-3.76-26.998c-1.072-0.529-2.085-0.924-3.082-1.205c-1.219-0.322-2.422-0.484-3.745-0.439
						c-2.32,0.045-4.975,0.676-8.559,1.937c-0.116,0.045-0.249,0.09-0.367,0.133c-6.121-2.702-11.01-2.718-15.751-0.426
						C279.781,307.23,278.107,319.311,283.569,330.558z"/>
				</g>
			</g>
			<g>
				<g>
					<path style="fill:#FAFAFA;" d="M283.701,319.166c-0.046,0.019-0.432-0.81-0.626-2.261c-0.199-1.443-0.098-3.517,0.676-5.625
						c0.783-2.105,2.055-3.747,3.144-4.713c1.091-0.977,1.923-1.355,1.945-1.311c0.052,0.078-0.7,0.563-1.689,1.575
						c-0.992,1.004-2.159,2.608-2.912,4.629c-0.742,2.025-0.898,4.002-0.798,5.409C283.536,318.283,283.791,319.14,283.701,319.166z
						"/>
				</g>
			</g>
			<g>
				<g>
					<path style="fill:#FAFAFA;" d="M285.085,324.512c-0.14,0.032-0.382-0.499-0.541-1.186c-0.159-0.687-0.174-1.271-0.033-1.303
						c0.14-0.032,0.382,0.498,0.541,1.186C285.21,323.897,285.225,324.48,285.085,324.512z"/>
				</g>
			</g>
			<g>
				<g>
					<path style="fill:#263238;" d="M319.746,285.015c0.039,0.094-1.411,0.635-3.534,1.905c-1.066,0.626-2.268,1.479-3.528,2.514
						c-1.24,1.059-2.525,2.315-3.726,3.765c-1.184,1.464-2.161,2.973-2.955,4.398c-0.766,1.44-1.364,2.787-1.767,3.956
						c-0.825,2.332-1.068,3.86-1.168,3.841c-0.036-0.006,0.007-0.389,0.116-1.08c0.049-0.347,0.123-0.769,0.253-1.249
						c0.124-0.481,0.238-1.039,0.45-1.629c0.364-1.2,0.936-2.586,1.693-4.064c0.784-1.463,1.768-3.01,2.975-4.502
						c1.223-1.478,2.544-2.748,3.823-3.805c1.299-1.034,2.544-1.869,3.649-2.463c0.537-0.325,1.061-0.547,1.508-0.764
						c0.445-0.222,0.844-0.378,1.174-0.495C319.366,285.099,319.733,284.981,319.746,285.015z"/>
				</g>
			</g>
		</g>
		<g>
			<g>
				<g>
					<path style="fill:#E8505B;" d="M412.361,180.354c-6.107-8.526-19.079-14.366-29.619-12.798
						c-8.546,1.272-16.099,5.242-20.239,13.723c-1.169,2.395,0.329,5.236,2.975,5.551c14.213,1.697,28.633,1.65,42.834-0.145
						c2.193-0.277,4.799-0.884,4.949-3.596C413.317,182.106,412.935,181.155,412.361,180.354z"/>
				</g>
				<g>
					<g>
						<path style="fill:#263238;" d="M378.62,179.932c-0.05,0.039-0.487-0.392-1.073-1.195c-0.573-0.802-1.285-2.031-1.618-3.54
							c-0.329-1.504-0.314-2.879-0.316-3.86c0.013-0.983,0.059-1.591,0.131-1.594c0.072-0.003,0.156,0.603,0.237,1.58
							c0.095,0.974,0.143,2.331,0.456,3.759c0.316,1.428,0.936,2.615,1.42,3.455C378.351,179.373,378.684,179.884,378.62,179.932z"
							/>
					</g>
				</g>
				<g>
					<g>
						<path style="fill:#263238;" d="M387.676,179.513c-0.157-0.016,0.069-2.425-0.249-5.364c-0.299-2.942-1.02-5.251-0.87-5.299
							c0.119-0.052,1.08,2.231,1.388,5.245C388.269,177.105,387.803,179.539,387.676,179.513z"/>
					</g>
				</g>
				<g>
					<g>
						<path style="fill:#263238;" d="M397.03,178.134c-0.145-0.063,0.558-1.679,0.729-3.799c0.196-2.119-0.217-3.83-0.064-3.868
							c0.12-0.053,0.786,1.68,0.583,3.913C398.093,176.613,397.138,178.207,397.03,178.134z"/>
					</g>
				</g>
			</g>
			<g>
				<g style="opacity:0.3;">
					<g>
						<path d="M386.011,167.96c0.03,0.048,0.052,0.102,0.081,0.15c0.001-0.003,0.003-0.005,0.004-0.007L386.011,167.96z"/>
					</g>
				</g>
				<g style="opacity:0.3;">
					<g>
						<path d="M386.092,168.11c-1.779,3.051-1.556,7.499,1.498,10.715C388.456,175.329,387.946,171.206,386.092,168.11z"/>
					</g>
				</g>
			</g>
			<g>
				<g style="opacity:0.3;">
					<g>
						<path d="M374.839,170.108"/>
					</g>
				</g>
				<g style="opacity:0.3;">
					<g>
						<path d="M377.392,178.428c-0.97-1.748-1.554-3.709-1.697-5.703c-0.064-0.884-0.059-1.799-0.39-2.616
							c-1.037,1.296-1.572,2.986-1.448,4.641c0.13,1.739,0.979,3.414,2.305,4.547c0.206,0.176,0.433,0.344,0.698,0.4
							c0.265,0.056,0.577-0.029,0.714-0.263C377.754,179.125,377.566,178.74,377.392,178.428z"/>
					</g>
				</g>
			</g>
			<g style="opacity:0.3;">
				<g>
					<path d="M397.846,171.258L397.846,171.258c-0.056-0.339-0.115-0.689-0.296-0.981c-0.181-0.292-0.518-0.516-0.857-0.459
						c-0.471,0.079-0.699,0.61-0.841,1.067c-0.628,2.019-1.196,4.169-0.694,6.223c0.116,0.476,0.42,1.031,0.909,0.997
						c0.374-0.026,0.62-0.392,0.79-0.725C397.903,175.333,398.089,173.544,397.846,171.258z"/>
				</g>
			</g>
		</g>
		<g>
			<path style="fill:#263238;" d="M281.477,235.288v0.938h-0.687v-0.93c-0.821-0.05-1.617-0.318-2.053-0.695l0.377-0.846
				c0.411,0.335,1.039,0.578,1.676,0.637v-1.676c-0.93-0.226-1.927-0.528-1.927-1.692c0-0.855,0.62-1.6,1.927-1.725v-0.947h0.687
				v0.93c0.62,0.034,1.248,0.218,1.701,0.511l-0.344,0.846c-0.444-0.26-0.913-0.402-1.357-0.453v1.692
				c0.93,0.226,1.943,0.519,1.943,1.684C283.421,234.417,282.793,235.154,281.477,235.288z M280.791,231.702v-1.491
				c-0.595,0.092-0.847,0.394-0.847,0.762C279.944,231.376,280.304,231.56,280.791,231.702z M282.348,233.637
				c0-0.41-0.368-0.603-0.871-0.745v1.482C282.089,234.283,282.348,233.998,282.348,233.637z"/>
			<path style="fill:#263238;" d="M288.426,229.357v5.864h-1.089v-4.951h-1.239v-0.913H288.426z"/>
			<path style="fill:#263238;" d="M290.933,234.584c0,0.185-0.042,0.335-0.192,0.721l-0.428,1.181h-0.679l0.335-1.282
				c-0.234-0.101-0.394-0.318-0.394-0.62c0-0.419,0.294-0.695,0.679-0.695C290.648,233.889,290.933,234.174,290.933,234.584z"/>
			<path style="fill:#263238;" d="M295.903,233.42c0,1.031-0.746,1.885-2.32,1.885c-0.83,0-1.667-0.251-2.203-0.679l0.46-0.846
				c0.428,0.352,1.064,0.578,1.726,0.578c0.779,0,1.24-0.343,1.24-0.896c0-0.561-0.36-0.913-1.575-0.913h-1.415l0.301-3.192h3.443
				v0.913h-2.522l-0.126,1.357h0.561C295.208,231.627,295.903,232.381,295.903,233.42z"/>
			<path style="fill:#263238;" d="M296.533,232.289c0-1.927,1.056-3.016,2.446-3.016c1.4,0,2.455,1.089,2.455,3.016
				c0,1.927-1.056,3.016-2.455,3.016C297.589,235.305,296.533,234.216,296.533,232.289z M300.337,232.289
				c0-1.415-0.553-2.069-1.357-2.069c-0.796,0-1.349,0.653-1.349,2.069c0,1.416,0.553,2.069,1.349,2.069
				C299.784,234.358,300.337,233.705,300.337,232.289z"/>
		</g>
		<g>
			<g>
				<path style="fill:#263238;" d="M325.674,242.693c0,0.144-10.755,0.26-24.018,0.26c-13.268,0-24.021-0.117-24.021-0.26
					c0-0.144,10.753-0.26,24.021-0.26C314.92,242.433,325.674,242.55,325.674,242.693z"/>
			</g>
		</g>
		<g>
			<g>
				<path style="fill:#263238;" d="M300.017,246.604c0,0.144-4.993,0.26-11.151,0.26c-6.16,0-11.152-0.117-11.152-0.26
					c0-0.144,4.992-0.26,11.152-0.26C295.024,246.343,300.017,246.46,300.017,246.604z"/>
			</g>
		</g>
		<g>
			<path style="fill:#263238;" d="M365.646,211.313v0.939h-0.686v-0.93c-0.821-0.05-1.617-0.318-2.053-0.695l0.377-0.846
				c0.411,0.335,1.039,0.578,1.676,0.637v-1.676c-0.93-0.226-1.927-0.528-1.927-1.692c0-0.855,0.62-1.6,1.927-1.726v-0.947h0.686
				v0.93c0.62,0.034,1.248,0.218,1.701,0.511l-0.344,0.846c-0.444-0.26-0.913-0.402-1.358-0.453v1.692
				c0.93,0.226,1.943,0.519,1.943,1.684C367.589,210.442,366.962,211.18,365.646,211.313z M364.96,207.728v-1.491
				c-0.595,0.092-0.847,0.394-0.847,0.762C364.113,207.401,364.473,207.586,364.96,207.728z M366.517,209.663
				c0-0.41-0.368-0.603-0.871-0.745v1.482C366.257,210.308,366.517,210.023,366.517,209.663z"/>
			<path style="fill:#263238;" d="M374.816,210.325v0.921h-4.323v-0.729l2.329-2.211c0.569-0.544,0.67-0.888,0.67-1.215
				c0-0.536-0.368-0.846-1.089-0.846c-0.569,0-1.047,0.192-1.374,0.611l-0.762-0.587c0.452-0.611,1.265-0.972,2.228-0.972
				c1.273,0,2.095,0.645,2.095,1.683c0,0.57-0.159,1.089-0.972,1.852l-1.566,1.491H374.816z"/>
			<path style="fill:#263238;" d="M376.871,210.61c0,0.185-0.042,0.335-0.192,0.721l-0.428,1.181h-0.679l0.335-1.282
				c-0.234-0.101-0.394-0.318-0.394-0.62c0-0.419,0.294-0.695,0.679-0.695C376.586,209.914,376.871,210.199,376.871,210.61z"/>
			<path style="fill:#263238;" d="M381.907,210.325v0.921h-4.323v-0.729l2.329-2.211c0.569-0.544,0.67-0.888,0.67-1.215
				c0-0.536-0.368-0.846-1.089-0.846c-0.569,0-1.047,0.192-1.374,0.611l-0.762-0.587c0.452-0.611,1.265-0.972,2.228-0.972
				c1.273,0,2.095,0.645,2.095,1.683c0,0.57-0.159,1.089-0.972,1.852l-1.566,1.491H381.907z"/>
			<path style="fill:#263238;" d="M386.802,209.445c0,1.031-0.746,1.885-2.32,1.885c-0.83,0-1.667-0.251-2.203-0.679l0.46-0.846
				c0.428,0.352,1.064,0.578,1.726,0.578c0.779,0,1.24-0.343,1.24-0.896c0-0.561-0.36-0.913-1.575-0.913h-1.415l0.301-3.191h3.443
				v0.913h-2.521l-0.126,1.357h0.561C386.107,207.653,386.802,208.407,386.802,209.445z"/>
		</g>
		<g>
			<g>
				<path style="fill:#263238;" d="M409.842,218.72c0,0.144-10.755,0.26-24.018,0.26c-13.268,0-24.021-0.117-24.021-0.26
					c0-0.144,10.753-0.26,24.021-0.26C399.087,218.46,409.842,218.576,409.842,218.72z"/>
			</g>
		</g>
		<g>
			<g>
				<path style="fill:#263238;" d="M384.185,222.63c0,0.144-4.993,0.26-11.151,0.26c-6.16,0-11.152-0.117-11.152-0.26
					s4.992-0.26,11.152-0.26C379.192,222.37,384.185,222.486,384.185,222.63z"/>
			</g>
		</g>
		<g>
			<path style="fill:#263238;" d="M279.56,356.991v0.938h-0.686v-0.93c-0.821-0.05-1.617-0.318-2.053-0.695l0.377-0.846
				c0.411,0.335,1.039,0.578,1.676,0.637v-1.676c-0.93-0.226-1.927-0.527-1.927-1.692c0-0.854,0.62-1.6,1.927-1.726v-0.946h0.686
				v0.93c0.62,0.033,1.248,0.218,1.701,0.511l-0.344,0.847c-0.444-0.26-0.913-0.402-1.357-0.452v1.691
				c0.93,0.227,1.943,0.52,1.943,1.685C281.504,356.12,280.876,356.856,279.56,356.991z M278.874,353.405v-1.491
				c-0.595,0.093-0.847,0.394-0.847,0.763C278.027,353.078,278.387,353.262,278.874,353.405z M280.431,355.34
				c0-0.411-0.368-0.604-0.871-0.746v1.483C280.171,355.985,280.431,355.701,280.431,355.34z"/>
			<path style="fill:#263238;" d="M284.482,353.991c0-1.927,1.056-3.016,2.446-3.016c1.399,0,2.455,1.089,2.455,3.016
				c0,1.927-1.056,3.016-2.455,3.016C285.538,357.007,284.482,355.918,284.482,353.991z M288.286,353.991
				c0-1.416-0.553-2.069-1.357-2.069c-0.796,0-1.349,0.653-1.349,2.069c0,1.415,0.553,2.068,1.349,2.068
				C287.733,356.06,288.286,355.407,288.286,353.991z"/>
			<path style="fill:#263238;" d="M291.364,356.286c0,0.185-0.042,0.335-0.192,0.721l-0.428,1.181h-0.679l0.335-1.281
				c-0.234-0.101-0.393-0.318-0.393-0.62c0-0.419,0.294-0.695,0.679-0.695C291.079,355.591,291.364,355.876,291.364,356.286z"/>
			<path style="fill:#263238;" d="M296.333,355.122c0,1.03-0.746,1.885-2.32,1.885c-0.83,0-1.667-0.252-2.203-0.679l0.46-0.846
				c0.428,0.352,1.064,0.577,1.726,0.577c0.779,0,1.24-0.343,1.24-0.896c0-0.561-0.36-0.913-1.575-0.913h-1.415l0.301-3.192h3.443
				v0.913h-2.522l-0.126,1.357h0.562C295.637,353.329,296.333,354.083,296.333,355.122z"/>
			<path style="fill:#263238;" d="M296.964,353.991c0-1.927,1.056-3.016,2.446-3.016c1.399,0,2.455,1.089,2.455,3.016
				c0,1.927-1.056,3.016-2.455,3.016C298.019,357.007,296.964,355.918,296.964,353.991z M300.767,353.991
				c0-1.416-0.553-2.069-1.357-2.069c-0.796,0-1.349,0.653-1.349,2.069c0,1.415,0.553,2.068,1.349,2.068
				C300.214,356.06,300.767,355.407,300.767,353.991z"/>
		</g>
		<g>
			<g>
				<path style="fill:#263238;" d="M323.757,364.396c0,0.144-10.755,0.26-24.018,0.26c-13.268,0-24.021-0.117-24.021-0.26
					s10.753-0.26,24.021-0.26C313.002,364.136,323.757,364.253,323.757,364.396z"/>
			</g>
		</g>
		<g>
			<g>
				<path style="fill:#263238;" d="M298.1,368.306c0,0.144-4.993,0.26-11.151,0.26c-6.16,0-11.152-0.117-11.152-0.26
					s4.992-0.26,11.152-0.26C293.107,368.046,298.1,368.163,298.1,368.306z"/>
			</g>
		</g>
		<g>
			<path style="fill:#263238;" d="M361.752,325.26v0.938h-0.686v-0.93c-0.821-0.05-1.617-0.318-2.053-0.695l0.377-0.846
				c0.411,0.335,1.039,0.578,1.676,0.637v-1.676c-0.93-0.226-1.927-0.527-1.927-1.692c0-0.854,0.62-1.6,1.927-1.726v-0.946h0.686
				v0.93c0.62,0.033,1.248,0.218,1.701,0.511l-0.344,0.847c-0.444-0.26-0.913-0.402-1.357-0.452v1.691
				c0.93,0.227,1.943,0.52,1.943,1.685C363.695,324.389,363.067,325.125,361.752,325.26z M361.065,321.674v-1.491
				c-0.595,0.093-0.847,0.394-0.847,0.763C360.218,321.348,360.579,321.532,361.065,321.674z M362.623,323.61
				c0-0.411-0.368-0.604-0.871-0.746v1.483C362.363,324.254,362.623,323.97,362.623,323.61z"/>
			<path style="fill:#263238;" d="M368.701,319.328v5.864h-1.089v-4.951h-1.239v-0.913H368.701z"/>
			<path style="fill:#263238;" d="M371.208,324.556c0,0.185-0.042,0.335-0.192,0.721l-0.428,1.181h-0.679l0.335-1.281
				c-0.234-0.101-0.394-0.318-0.394-0.62c0-0.419,0.294-0.695,0.679-0.695C370.922,323.861,371.208,324.146,371.208,324.556z"/>
			<path style="fill:#263238;" d="M371.812,322.261c0-1.927,1.056-3.016,2.446-3.016c1.4,0,2.455,1.089,2.455,3.016
				c0,1.927-1.056,3.016-2.455,3.016C372.868,325.277,371.812,324.188,371.812,322.261z M375.616,322.261
				c0-1.416-0.553-2.069-1.357-2.069c-0.796,0-1.349,0.653-1.349,2.069c0,1.415,0.553,2.068,1.349,2.068
				C375.063,324.329,375.616,323.676,375.616,322.261z"/>
			<path style="fill:#263238;" d="M377.453,322.261c0-1.927,1.056-3.016,2.446-3.016c1.399,0,2.455,1.089,2.455,3.016
				c0,1.927-1.056,3.016-2.455,3.016C378.508,325.277,377.453,324.188,377.453,322.261z M381.257,322.261
				c0-1.416-0.553-2.069-1.357-2.069c-0.796,0-1.349,0.653-1.349,2.069c0,1.415,0.553,2.068,1.349,2.068
				C380.704,324.329,381.257,323.676,381.257,322.261z"/>
		</g>
		<g>
			<g>
				<path style="fill:#263238;" d="M405.948,332.665c0,0.144-10.755,0.26-24.018,0.26c-13.268,0-24.021-0.117-24.021-0.26
					s10.752-0.26,24.021-0.26C395.194,332.405,405.948,332.521,405.948,332.665z"/>
			</g>
		</g>
		<g>
			<g>
				<path style="fill:#263238;" d="M380.291,336.575c0,0.144-4.993,0.26-11.151,0.26c-6.16,0-11.152-0.117-11.152-0.26
					c0-0.144,4.992-0.26,11.152-0.26C375.298,336.315,380.291,336.431,380.291,336.575z"/>
			</g>
		</g>
		<g>
			<g>
				<path style="fill:#E8505B;" d="M369.763,108.526c0,0.144-11.591,0.26-25.885,0.26c-14.299,0-25.888-0.117-25.888-0.26
					c0-0.144,11.588-0.26,25.888-0.26C358.172,108.265,369.763,108.382,369.763,108.526z"/>
			</g>
		</g>
	</g>
</g>
<g id="Character">
	<g>
		<g>
			<path style="fill:#FFBE9D;" d="M32.597,419.051c0,0-5.158,0-6.495,5.54c-1.337,5.54-1.528,7.451-1.528,7.451s-5.87,5.274,0,6.686
				c5.87,1.413,8.024-6.495,8.024-6.495l0.904-13.182C32.597,419.051,32.597,419.051,32.597,419.051z"/>
		</g>
		<g>
			<path style="fill:#E8505B;" d="M91.378,317.992c0,0,18.343-61.588,20.21-64.245c3.084-4.386,32.771-17.584,32.771-17.584
				l7.961-16.246l49.355-7.888l12.223,15.741l34.369,25.178l-2.398,87.122l-1.275,60.833l6.504,75.934l-156.1-0.237l7.062-15.993
				l7.414-138.113L91.378,317.992z"/>
		</g>
		<g>
			<g>
				<path style="fill:#263238;" d="M112.53,309.688c-0.018,0-0.039-0.171-0.062-0.497c-0.021-0.387-0.046-0.858-0.076-1.427
					c-0.057-1.24-0.109-3.035-0.15-5.253c-0.083-4.437-0.086-10.569,0.107-17.338c0.196-6.771,0.55-12.894,0.887-17.319
					c0.168-2.212,0.323-4.001,0.451-5.236c0.063-0.567,0.115-1.036,0.158-1.421c0.042-0.324,0.072-0.494,0.09-0.492
					c0.018,0.001,0.022,0.174,0.014,0.501c-0.016,0.386-0.036,0.858-0.06,1.427c-0.072,1.318-0.168,3.09-0.285,5.244
					c-0.242,4.428-0.538,10.546-0.734,17.31c-0.192,6.761-0.247,12.886-0.259,17.32c-0.007,2.157-0.012,3.932-0.016,5.252
					c-0.009,0.57-0.016,1.042-0.022,1.429C112.562,309.516,112.548,309.688,112.53,309.688z"/>
			</g>
		</g>
		<g style="opacity:0.3;">
			<g>
				<path d="M147.886,291.979c-0.033-0.724,0.187-1.376,0.576-1.925c1.168-1.649,3.862-2.385,5.826-1.447
					c2.618,1.251,3.917,4.25,4.442,7.103c0.575,3.122,0.491,6.338,1.079,9.458c0.588,3.12,2.018,6.304,4.752,7.918
					c3.39,2.001,7.839,1.094,11.401,2.771c5.303,2.497,6.53,9.388,6.796,15.244c0.503,11.086,0.023,22.19-0.456,33.277
					c-1.021,23.607-2.043,47.214-3.064,70.821l-2.785,35.528l-14.365,6.104L143.09,352.01L147.886,291.979z"/>
			</g>
		</g>
		<g>
			<g>
				<path style="fill:#263238;" d="M151.979,281.882c0.007,0.013-0.114,0.095-0.373,0.2c-0.26,0.097-0.678,0.187-1.213,0.12
					c-1.036-0.115-2.617-0.982-3.262-2.852c-0.311-0.91-0.387-1.976-0.29-3.079c0.094-1.107,0.343-2.256,0.575-3.457
					c0.482-2.415,1.008-5.055,1.561-7.825c1.122-5.55,2.166-10.569,2.947-14.196c0.387-1.743,0.707-3.188,0.951-4.29
					c0.236-1.011,0.383-1.566,0.419-1.559c0.035,0.007-0.045,0.576-0.22,1.599c-0.203,1.111-0.469,2.566-0.789,4.323
					c-0.689,3.646-1.676,8.676-2.797,14.226c-0.567,2.768-1.107,5.405-1.601,7.817c-0.518,2.383-0.978,4.588-0.406,6.327
					c0.54,1.726,1.987,2.603,2.943,2.765C151.43,282.179,151.965,281.814,151.979,281.882z"/>
			</g>
		</g>
		<g>
			<g>
				<path style="fill:#263238;" d="M157.056,258.714c0.002,0.05-0.408,0.047-1.088,0.261c-0.671,0.208-1.628,0.705-2.409,1.698
					c-0.779,0.962-1.32,2.533-0.743,4.098c0.52,1.529,2.029,2.986,3.914,3.153c1.888,0.135,3.609-1.066,4.365-2.493
					c0.817-1.454,0.532-3.091-0.085-4.164c-0.614-1.104-1.48-1.746-2.11-2.058c-0.638-0.318-1.043-0.381-1.033-0.43
					c0.003-0.018,0.104-0.013,0.298,0.013c0.193,0.023,0.476,0.09,0.82,0.233c0.685,0.269,1.642,0.897,2.345,2.058
					c0.343,0.577,0.622,1.285,0.695,2.087c0.068,0.798-0.075,1.687-0.505,2.486c-0.816,1.589-2.682,2.933-4.83,2.788
					c-2.143-0.198-3.772-1.82-4.327-3.517c-0.298-0.857-0.298-1.757-0.105-2.534c0.199-0.78,0.587-1.435,1.017-1.95
					c0.877-1.035,1.922-1.504,2.641-1.661c0.362-0.086,0.652-0.108,0.846-0.1C156.956,258.684,157.056,258.695,157.056,258.714z"/>
			</g>
		</g>
		<g>
			<g>
				<polygon style="fill:#E8505B;" points="173.848,322.378 83.685,306.065 41.603,315.296 135.783,332.253 				"/>
			</g>
			<g style="opacity:0.6;">
				<polygon points="173.848,322.378 83.685,306.065 41.603,315.296 135.783,332.253 				"/>
			</g>
		</g>
		<g>
			<g>
				<path style="fill:#455A64;" d="M116.199,361.696c1.223-16.617,5.78-58.823,9.2-75.131c1.023-4.88,2.201-9.874,5.04-13.973
					c2.839-4.099,7.738-7.15,12.666-6.391c4.4,0.677,7.931,4.248,9.718,8.325c1.787,4.077,2.455,8.629,2.268,13.077
					c-0.848,20.157-2.59,42.742-2.574,61.431"/>
			</g>
			<g>
				<g>
					<path style="fill:#263238;" d="M146.733,322.122c0.018,0.08-1.281,0.414-3.344,1.059c-2.064,0.642-4.881,1.635-7.883,2.993
						c-3,1.364-5.604,2.829-7.447,3.958c-1.844,1.128-2.952,1.885-3,1.818c-0.021-0.029,0.232-0.25,0.71-0.627
						c0.475-0.38,1.189-0.895,2.091-1.502c1.803-1.216,4.403-2.747,7.43-4.123c3.028-1.37,5.893-2.317,7.995-2.873
						c1.051-0.279,1.909-0.476,2.508-0.584C146.392,322.132,146.725,322.087,146.733,322.122z"/>
				</g>
			</g>
			<g>
				<g>
					<path style="fill:#263238;" d="M148.233,302.938c0.017,0.085-1.356,0.385-3.515,1.052c-2.159,0.664-5.092,1.758-8.143,3.357
						c-3.049,1.607-5.612,3.403-7.384,4.805c-1.774,1.4-2.8,2.361-2.86,2.299c-0.025-0.026,0.207-0.29,0.65-0.749
						c0.438-0.462,1.112-1.093,1.977-1.835c1.726-1.487,4.289-3.354,7.375-4.981c3.088-1.619,6.08-2.671,8.283-3.25
						c1.102-0.292,2.003-0.489,2.632-0.588C147.876,302.944,148.226,302.903,148.233,302.938z"/>
				</g>
			</g>
			<g>
				<g>
					<path style="fill:#263238;" d="M146.205,287.5c0.003,0.089-1.069,0.138-2.758,0.448c-1.688,0.306-3.986,0.947-6.33,2.109
						c-2.34,1.171-4.237,2.619-5.498,3.781c-1.266,1.161-1.95,1.988-2.02,1.931c-0.028-0.022,0.118-0.248,0.408-0.64
						c0.284-0.396,0.746-0.932,1.356-1.556c1.216-1.25,3.125-2.784,5.521-3.982c2.399-1.19,4.773-1.79,6.504-2.007
						c0.866-0.111,1.572-0.157,2.06-0.145C145.936,287.445,146.204,287.464,146.205,287.5z"/>
				</g>
			</g>
		</g>
		<g>
			<g>
				<g>
					<path style="fill:#FAFAFA;" d="M135.01,335.584c0,0.044,0.016,0.072,0.016,0.086v57.695c0,2.53-2.035,5.145-5.787,7.124
						c-3.737,1.974-9.203,3.329-16.023,3.344h-0.087c-13.653-0.027-21.81-5.394-21.81-10.467V335.67
						c0-0.015,0.015-0.043,0.015-0.086c0-0.028-0.015-0.072-0.015-0.115c0.03-5.642,4.174-11.53,8.346-17.347
						c2.806-3.882,3.474-9.48,3.605-12.765c0.015-0.393,0.03-0.742,0.03-1.062h-0.377c-1.804,0-3.257-1.251-3.257-2.793v-2.442
						c0-1.556,1.453-2.806,3.257-2.806h20.5c1.352,0,2.516,0.699,3.009,1.701c0.16,0.349,0.248,0.712,0.248,1.105v2.442
						c0,1.542-1.454,2.793-3.257,2.793h-0.377c0,0.32,0.015,0.669,0.028,1.062c0.131,3.285,0.801,8.883,3.606,12.765
						c4.173,5.816,8.317,11.704,8.346,17.347C135.026,335.512,135.01,335.555,135.01,335.584z"/>
				</g>
				<g>
					<g>
						<path style="fill:#263238;" d="M135.01,335.584c0,0,0.005-0.199-0.032-0.59c-0.012-0.392-0.084-0.971-0.212-1.726
							c-0.285-1.503-0.984-3.681-2.385-6.257c-1.385-2.586-3.441-5.545-5.903-8.952c-1.236-1.733-2.092-3.876-2.675-6.206
							c-0.58-2.337-0.882-4.877-0.926-7.558l-0.003-0.177l0.173,0.007c0.772,0.029,1.524-0.093,2.178-0.5
							c0.644-0.391,1.149-1.051,1.253-1.811c0.047-0.77,0.01-1.641,0.019-2.473c0.065-0.829-0.251-1.607-0.89-2.13
							c-0.624-0.529-1.461-0.79-2.315-0.763c-0.886,0.001-1.783,0.003-2.69,0.004c-1.814,0.003-3.668,0.005-5.561,0.008
							c-3.786,0.005-7.728,0.01-11.809,0.015c-0.992-0.051-1.976,0.247-2.656,0.948c-0.326,0.349-0.571,0.78-0.645,1.251
							c-0.07,0.447-0.022,1.021-0.036,1.535c0.008,0.515-0.016,1.085,0.018,1.56c0.063,0.478,0.281,0.934,0.617,1.296
							c0.681,0.743,1.71,1.061,2.771,0.995l0.238-0.015l-0.003,0.249c-0.032,2.311-0.256,4.655-0.768,6.992
							c-0.52,2.325-1.329,4.673-2.737,6.733c-1.409,2.005-2.864,4-4.195,6.118c-1.326,2.112-2.583,4.328-3.403,6.734
							c-0.409,1.2-0.708,2.446-0.813,3.716c-0.066,1.257-0.036,2.591-0.043,3.897c0.001,2.627,0.001,5.281,0.002,7.958
							c0.001,5.355,0.001,10.807,0.002,16.332c-0.002,9.717-0.004,19.204-0.005,28.366c0.024,1.138-0.082,2.317,0.154,3.346
							c0.233,1.062,0.86,2.004,1.576,2.82c1.469,1.634,3.395,2.802,5.387,3.668c2.003,0.867,4.103,1.44,6.202,1.85
							c2.099,0.426,4.217,0.619,6.307,0.716c4.182,0.18,8.296-0.162,12.144-1.106c1.918-0.487,3.774-1.12,5.482-1.987
							c1.702-0.862,3.284-1.946,4.462-3.352c0.591-0.697,1.044-1.494,1.313-2.337c0.275-0.841,0.207-1.737,0.217-2.651
							c0.003-1.806,0.005-3.579,0.008-5.316c0.006-3.475,0.011-6.81,0.017-9.994c0.035-12.723,0.063-23.021,0.083-30.158
							C134.949,339.52,135.01,335.584,135.01,335.584c0.024-0.001,0.037,0.244,0.042,0.725c0.006,0.497,0.015,1.207,0.026,2.132
							c0.011,1.891,0.028,4.65,0.049,8.199c0.02,7.137,0.048,17.435,0.083,30.158c0.005,3.184,0.011,6.519,0.017,9.994
							c0.003,1.738,0.005,3.51,0.008,5.316c-0.001,0.453-0.002,0.908-0.003,1.365c-0.002,0.477-0.099,0.948-0.224,1.408
							c-0.288,0.911-0.77,1.758-1.387,2.489c-1.231,1.475-2.857,2.589-4.594,3.474c-1.743,0.89-3.628,1.536-5.572,2.034
							c-3.9,0.965-8.051,1.316-12.275,1.142c-2.111-0.095-4.252-0.286-6.38-0.715c-2.128-0.412-4.26-0.991-6.307-1.874
							c-2.035-0.885-4.018-2.073-5.567-3.791c-0.754-0.859-1.428-1.863-1.69-3.033c-0.263-1.19-0.142-2.322-0.171-3.466
							c-0.002-9.162-0.003-18.649-0.005-28.366c0.001-5.526,0.001-10.977,0.002-16.332c0.001-2.678,0.001-5.331,0.002-7.958
							c0.008-1.323-0.024-2.601,0.047-3.937c0.11-1.323,0.422-2.609,0.842-3.839c0.844-2.467,2.122-4.708,3.461-6.837
							c1.342-2.131,2.812-4.141,4.213-6.129c1.36-1.982,2.158-4.274,2.672-6.559c0.507-2.294,0.733-4.617,0.769-6.888l0.234,0.234
							c-1.098,0.071-2.337-0.282-3.113-1.152c-0.393-0.425-0.657-0.972-0.731-1.552c-0.04-0.586-0.01-1.076-0.019-1.616
							c0.017-0.54-0.039-1.023,0.046-1.612c0.091-0.567,0.386-1.08,0.767-1.485c0.778-0.813,1.945-1.138,2.98-1.079
							c4.082,0.005,8.023,0.01,11.809,0.015c1.893,0.003,3.747,0.006,5.561,0.008c0.907,0.001,1.803,0.003,2.69,0.004
							c0.915-0.026,1.862,0.263,2.56,0.862c0.721,0.574,1.098,1.556,1.014,2.418c-0.014,0.854,0.024,1.653-0.032,2.522
							c-0.124,0.884-0.709,1.629-1.426,2.059c-0.714,0.45-1.588,0.578-2.361,0.542l0.17-0.17c0.082,5.276,1.104,10.159,3.48,13.611
							c2.438,3.418,4.482,6.406,5.848,9.018c1.383,2.603,2.06,4.809,2.316,6.327c0.114,0.762,0.17,1.346,0.167,1.74
							C135.048,335.385,135.029,335.584,135.01,335.584z"/>
					</g>
				</g>
			</g>
			<g>
				<g>
					<path style="fill:#263238;" d="M121.885,304.154c0,0.144-4.086,0.26-9.126,0.26c-5.041,0-9.127-0.117-9.127-0.26
						s4.086-0.26,9.127-0.26C117.798,303.894,121.885,304.011,121.885,304.154z"/>
				</g>
			</g>
			<g>
				<path style="fill:#E8505B;" d="M133.185,343.292c-1.845-1.197-4.273-0.671-6.254,0.264c-1.981,0.935-3.849,2.253-5.999,2.598
					c-2.533,0.407-5.08-0.602-7.332-1.876c-2.251-1.274-4.375-2.84-6.799-3.705c-4.643-1.656-10.137-0.362-13.64,3.213v49.543
					c0,0,2.723,8.453,21.883,7.125c19.16-1.328,17.651-9.781,17.651-9.781L133.185,343.292z"/>
			</g>
		</g>
		<g>
			<g>
				<path style="fill:#455A64;" d="M82.425,309.572c0.563-3.649-0.387-7.509-2.58-10.48c-2.193-2.971-5.6-5.017-9.254-5.555
					c-0.342-0.05-0.72-0.08-1.005,0.116c-0.404,0.28-0.421,0.863-0.375,1.352c0.333,3.54,1.813,6.963,4.164,9.63
					c2.351,2.667,5.562,4.565,9.032,5.338"/>
			</g>
			<g>
				<g>
					<path style="fill:#E8505B;" d="M62.749,335.482c3.544,7.301,8.633,12.218,14.938,12.456c1.261,0.044,2.214-0.785,3.418-0.855
						c0.616,0.042,1.332,0.477,2.017,0.759c0.366,0.14,0.729,0.251,1.052,0.238c6.516-0.35,12.067-4.934,15.808-12.599
						c5.21-10.735,3.601-22.267-3.589-25.77c-1.024-0.505-1.99-0.882-2.942-1.15c-1.164-0.307-2.312-0.462-3.575-0.419
						c-2.214,0.043-4.749,0.645-8.169,1.849c-0.111,0.043-0.238,0.086-0.35,0.127c-5.842-2.579-10.509-2.594-15.034-0.407
						C59.133,313.216,57.535,324.748,62.749,335.482z"/>
				</g>
			</g>
			<g>
				<g>
					<path style="fill:#FAFAFA;" d="M62.875,324.609c-0.047,0.019-0.419-0.771-0.605-2.157c-0.193-1.378-0.097-3.36,0.643-5.374
						c0.748-2.011,1.965-3.58,3.007-4.501c1.043-0.931,1.84-1.29,1.863-1.245c0.051,0.078-0.664,0.543-1.607,1.51
						c-0.945,0.96-2.056,2.489-2.774,4.417c-0.708,1.931-0.858,3.815-0.764,5.159C62.723,323.764,62.964,324.583,62.875,324.609z"/>
				</g>
			</g>
			<g>
				<g>
					<path style="fill:#FAFAFA;" d="M64.195,329.712c-0.14,0.032-0.376-0.473-0.528-1.129c-0.151-0.656-0.16-1.214-0.02-1.246
						c0.14-0.032,0.376,0.473,0.528,1.129C64.326,329.122,64.336,329.68,64.195,329.712z"/>
				</g>
			</g>
			<g>
				<g>
					<path style="fill:#263238;" d="M97.28,292.011c0.038,0.093-1.345,0.612-3.369,1.826c-1.016,0.599-2.163,1.413-3.364,2.401
						c-1.183,1.011-2.408,2.21-3.554,3.593c-1.13,1.397-2.063,2.836-2.82,4.195c-0.731,1.373-1.303,2.659-1.688,3.773
						c-0.789,2.224-1.024,3.682-1.123,3.663c-0.035-0.006,0.004-0.372,0.106-1.032c0.046-0.331,0.116-0.734,0.239-1.193
						c0.118-0.46,0.227-0.992,0.428-1.556c0.347-1.146,0.892-2.47,1.614-3.882c0.748-1.398,1.688-2.874,2.84-4.299
						c1.168-1.411,2.43-2.624,3.652-3.633c1.241-0.987,2.43-1.783,3.485-2.35c0.513-0.309,1.013-0.521,1.44-0.728
						c0.425-0.211,0.806-0.36,1.122-0.471C96.917,292.088,97.268,291.977,97.28,292.011z"/>
				</g>
			</g>
		</g>
		<g>
			<g>
				<path style="fill:#E8505B;" d="M41.603,315.296L30.27,458.224l105.604,25.529c0,0,36.833-12.489,37.335-13.342
					c0.502-0.853,0.64-148.033,0.64-148.033l-38.065,9.875L41.603,315.296z"/>
			</g>
			<g style="opacity:0.4;">
				<path d="M41.603,315.296L30.27,458.224l105.604,25.529c0,0,36.833-12.489,37.335-13.342c0.502-0.853,0.64-148.033,0.64-148.033
					l-38.065,9.875L41.603,315.296z"/>
			</g>
		</g>
		<g>
			<g>
				<g>
					<g>
						<g>
							<g>
								<g>
									<g>
										<g>
											<g>
												<g>
													<g>
														<g>
															<g>
																<g>
																	<g>
																		<g>
																			<g>
																				<g>
																					<path style="fill:#FFBE9D;" d="M207.23,148.816l-5.888,83.413c-0.962,13.619-12.29,24.175-25.942,24.175l0,0
																						c-15.031,0-26.938-12.709-25.951-27.708c0.522-7.94,0.994-14.441,0.994-14.441s-20.193-3.14-20.443-23.329
																						c-0.144-11.661,1.867-38.123,3.591-58.396c1.166-13.705,12.638-24.226,26.393-24.226h12.197
																						C193.188,109.531,209.038,127.852,207.23,148.816z"/>
																				</g>
																			</g>
																		</g>
																	</g>
																</g>
															</g>
														</g>
													</g>
												</g>
											</g>
											<g>
												<g>
													<g>
														<g>
															<g>
																<g>
																	<g>
																		<g>
																			<g>
																				<g>
																					<path style="fill:#EB996E;" d="M150.444,214.254c0,0,12.727,0.747,26.288-7.771
																						c0,0-6.502,14.688-26.649,12.869L150.444,214.254z"/>
																				</g>
																			</g>
																		</g>
																	</g>
																</g>
															</g>
														</g>
													</g>
												</g>
											</g>
										</g>
									</g>
								</g>
								<g>
									<g>
										<g>
											<g>
												<g>
													<g>
														<g>
															<g>
																<g>
																	<g>
																		<g>
																			<g>
																				<g>
																					<g>
																						<g>
																							<g>
																								<g>
																									<path style="fill:#263238;" d="M137.382,153.355c0.358,0.376,2.541-1.241,5.645-1.232
																										c3.099-0.036,5.376,1.56,5.712,1.18c0.166-0.168-0.198-0.847-1.19-1.569
																										c-0.976-0.719-2.641-1.418-4.573-1.41c-1.933,0.011-3.559,0.722-4.493,1.45
																										C137.529,152.506,137.206,153.187,137.382,153.355z"/>
																								</g>
																							</g>
																						</g>
																					</g>
																				</g>
																			</g>
																		</g>
																	</g>
																</g>
															</g>
														</g>
													</g>
													<g>
														<g>
															<g>
																<g>
																	<g>
																		<g>
																			<g>
																				<g>
																					<g>
																						<g>
																							<g>
																								<path style="fill:#263238;" d="M170.965,156.917c-0.053,1.523,1.191,2.824,2.78,2.909
																									c1.586,0.085,2.918-1.077,2.972-2.6c0.054-1.522-1.191-2.825-2.778-2.911
																									C172.351,154.23,171.018,155.395,170.965,156.917z"/>
																							</g>
																						</g>
																					</g>
																				</g>
																			</g>
																		</g>
																	</g>
																</g>
															</g>
														</g>
														<g>
															<g>
																<g>
																	<g>
																		<g>
																			<g>
																				<g>
																					<g>
																						<g>
																							<g>
																								<path style="fill:#263238;" d="M140.181,156.917c-0.053,1.523,1.191,2.824,2.78,2.909
																									c1.586,0.085,2.918-1.077,2.972-2.6c0.054-1.522-1.191-2.825-2.778-2.911
																									C141.567,154.23,140.234,155.395,140.181,156.917z"/>
																							</g>
																						</g>
																					</g>
																				</g>
																			</g>
																		</g>
																	</g>
																</g>
															</g>
														</g>
														<g>
															<g>
																<g>
																	<g>
																		<g>
																			<g>
																				<g>
																					<g>
																						<g>
																							<g>
																								<g>
																									<path style="fill:#263238;" d="M167.57,153.355c0.358,0.376,2.546-1.24,5.646-1.232
																										c3.099-0.036,5.376,1.559,5.713,1.179c0.164-0.168-0.196-0.847-1.191-1.568
																										c-0.976-0.719-2.64-1.418-4.573-1.41c-1.933,0.011-3.558,0.722-4.493,1.451
																										C167.72,152.507,167.395,153.187,167.57,153.355z"/>
																								</g>
																							</g>
																						</g>
																					</g>
																				</g>
																			</g>
																		</g>
																	</g>
																</g>
															</g>
														</g>
													</g>
													<g>
														<g>
															<g>
																<g>
																	<g>
																		<g>
																			<g>
																				<g>
																					<g>
																						<g>
																							<g>
																								<path style="fill:#263238;" d="M156.31,176.364c0.014-0.176-1.914-0.509-5.039-0.909
																									c-0.792-0.082-1.542-0.239-1.676-0.78c-0.187-0.572,0.145-1.426,0.529-2.348
																									c0.745-1.917,1.525-3.927,2.343-6.033c3.254-8.59,5.609-15.652,5.262-15.781
																									c-0.347-0.128-3.267,6.73-6.52,15.32c-0.783,2.118-1.532,4.137-2.244,6.069
																									c-0.299,0.9-0.815,1.921-0.411,3.109c0.213,0.592,0.794,1.022,1.303,1.159
																									c0.508,0.155,0.954,0.163,1.345,0.187C154.347,176.527,156.298,176.541,156.31,176.364z"/>
																							</g>
																						</g>
																					</g>
																				</g>
																			</g>
																		</g>
																	</g>
																</g>
															</g>
														</g>
													</g>
													<g>
														<g>
															<g>
																<g>
																	<g>
																		<g>
																			<g>
																				<g>
																					<g>
																						<g>
																							<g>
																								<path style="fill:#263238;" d="M165.441,178.511c-0.505-0.03-0.511,3.339-3.393,5.729
																									c-2.877,2.398-6.467,2.02-6.494,2.491c-0.047,0.211,0.8,0.654,2.315,0.695
																									c1.486,0.051,3.657-0.426,5.421-1.889c1.758-1.466,2.515-3.422,2.63-4.804
																									C166.047,179.326,165.672,178.491,165.441,178.511z"/>
																							</g>
																						</g>
																					</g>
																				</g>
																			</g>
																		</g>
																	</g>
																</g>
															</g>
														</g>
													</g>
												</g>
											</g>
										</g>
										<g>
											<g>
												<g>
													<g>
														<g>
															<g>
																<g>
																	<g>
																		<g>
																			<g>
																				<path style="fill:#263238;" d="M166.769,143.27c0.306,0.844,3.404,0.444,7.044,0.883
																					c3.65,0.365,6.585,1.431,7.068,0.675c0.215-0.362-0.296-1.156-1.483-1.973c-1.176-0.815-3.053-1.59-5.238-1.834
																					c-2.186-0.238-4.186,0.109-5.512,0.648C167.311,142.207,166.638,142.87,166.769,143.27z"/>
																			</g>
																		</g>
																	</g>
																</g>
															</g>
														</g>
													</g>
												</g>
											</g>
										</g>
										<g>
											<g>
												<g>
													<g>
														<g>
															<g>
																<g>
																	<g>
																		<g>
																			<g>
																				<path style="fill:#263238;" d="M137.815,144.472c0.546,0.705,2.683-0.027,5.254-0.061
																					c2.569-0.124,4.746,0.474,5.247-0.263c0.22-0.358-0.123-1.064-1.074-1.731c-0.937-0.665-2.504-1.208-4.27-1.155
																					c-1.766,0.056-3.297,0.695-4.191,1.416C137.872,143.403,137.574,144.129,137.815,144.472z"/>
																			</g>
																		</g>
																	</g>
																</g>
															</g>
														</g>
													</g>
												</g>
											</g>
										</g>
									</g>
								</g>
								<g>
									<g>
										<g>
											<g>
												<g>
													<g>
														<g>
															<g>
																<g>
																	<g>
																		<g>
																			<path style="fill:#FFBE9D;" d="M200.424,163.97c0.344-0.149,13.872-4.103,13.431,9.7
																				c-0.441,13.803-14.208,10.514-14.219,10.117C199.625,183.39,200.424,163.97,200.424,163.97z"/>
																		</g>
																	</g>
																</g>
															</g>
														</g>
													</g>
												</g>
											</g>
										</g>
									</g>
									<g>
										<g>
											<g>
												<g>
													<g>
														<g>
															<g>
																<g>
																	<g>
																		<g>
																			<g>
																				<path style="fill:#EB996E;" d="M204.02,178.692c0.062-0.042,0.236,0.176,0.636,0.375
																					c0.39,0.194,1.068,0.341,1.796,0.094c1.476-0.489,2.777-2.765,2.924-5.25c0.076-1.255-0.149-2.46-0.563-3.464
																					c-0.389-1.024-1.02-1.75-1.75-1.904c-0.725-0.193-1.259,0.231-1.44,0.613c-0.197,0.38-0.118,0.659-0.192,0.68
																					c-0.04,0.033-0.289-0.24-0.16-0.807c0.066-0.272,0.238-0.593,0.57-0.847c0.34-0.259,0.832-0.381,1.342-0.309
																					c1.062,0.107,1.989,1.118,2.443,2.221c0.513,1.109,0.795,2.464,0.711,3.874
																					c-0.177,2.778-1.684,5.336-3.698,5.849c-0.979,0.222-1.78-0.096-2.188-0.435
																					C204.034,179.026,203.971,178.715,204.02,178.692z"/>
																			</g>
																		</g>
																	</g>
																</g>
															</g>
														</g>
													</g>
												</g>
											</g>
										</g>
									</g>
								</g>
							</g>
						</g>
						<g>
							<g>
								<g>
									<g>
										<g>
											<g>
												<path style="fill:#263238;" d="M208.103,163.502c-2.105-0.509-5.747,1.434-6.645,3.405
													c-0.898,1.971-1.096,4.205-1.99,6.177c-0.895,1.972-2.918,3.756-5.026,3.257c-1.454-0.344-2.493-1.706-2.877-3.15
													c-0.384-1.444-0.228-2.97-0.041-4.452c0.813-6.447,2.169-12.839,2.428-19.331c0.259-6.492-0.665-13.237-4.074-18.768
													c-3.409-5.531-9.671-9.598-16.147-9.076c-4.29,0.346-8.224,2.583-12.486,3.18c-5.053,0.707-10.396-1.076-14.01-4.677
													c-0.464-0.461-2.618-1.882-2.618-1.882c0-0.335,0.316-3.217,1.452-4.268c8.455-7.819,23.691-10.002,34.859-7.191
													c11.169,2.811,21.637,10.696,26.442,21.162C212.176,138.354,210.751,152.911,208.103,163.502"/>
											</g>
										</g>
									</g>
								</g>
							</g>
						</g>
					</g>
				</g>
				<g>
					<path style="fill:#263238;" d="M131.384,128.885c1.81,4.193,6.424,6.633,10.967,7.095c4.544,0.462,9.08-0.717,13.474-1.963
						s16.18-3.201,20.745-3.061c0.683,0.021,1.504,0.008,1.867-0.571c0.48-0.766-0.289-1.693-1.001-2.251
						c-6.018-4.714-20.565-7.605-28.202-7.926c-7.637-0.322-15.658,2.961-19.793,9.39"/>
				</g>
				<g>
					<g>
						<g>
							<path style="fill:#E8505B;" d="M133.369,129.413c0,0,52.967-17.041,75.88,28.785c0,0,3.425-11.468,3.425-17.615
								c0-4.106-2.457-28.558-27.616-36.249C185.057,104.333,147.153,89.867,133.369,129.413z"/>
						</g>
					</g>
				</g>
				<g style="opacity:0.4;">
					<g>
						<g>
							<path d="M133.369,129.413c0,0,6.028-7.171,16.843-7.648c15.624-0.69,44.868,8.095,59.037,36.433
								c0,0,3.425-11.468,3.425-17.615c0-4.106-2.457-28.558-27.616-36.249C185.057,104.333,147.153,89.867,133.369,129.413z"/>
						</g>
					</g>
				</g>
				<g>
					<g>
						<path style="fill:#E8505B;" d="M207.036,152.833c-7.855-12.016-18.683-21.952-30.859-29.558
							c-12.175-7.606-32.309-15.129-46.184-18.812c-4.166-1.106-8.508-2.072-12.755-1.338c-4.247,0.734-8.404,3.562-9.458,7.741
							c-1.319,5.231,7.964,13.303,12.326,16.477c4.363,3.174,13.262,7.83,13.262,7.83s-0.119-9.702,15.409-11.703
							C169.9,120.749,207.036,152.833,207.036,152.833z"/>
					</g>
				</g>
			</g>
			<g>
				<path style="fill:#FAFAFA;" d="M163.596,113.254c0,0-7.632-4.222-15.297-5.206c1.574-1.153,2.415-1.707,4.157-2.495
					c3.921,0.78,7.895,1.775,11.921,4.008L163.596,113.254z"/>
			</g>
		</g>
		<g>
			<path style="fill:#E8505B;" d="M230.139,250.838c0,0-14.478,16.548-12.879,39.579c0.222,3.194,0.379,7.646,0.772,10.827
				c2.441,19.755,6.218,38.092,6.218,38.092h1.377l50.49-12.466c0,0-7.607-43.833-9.354-49.649
				c-5.595-18.628-24.785-28.878-24.785-28.878L230.139,250.838z"/>
		</g>
		<g>
			<g>
				<path style="fill:#263238;" d="M173.208,470.411c0,0-0.015-0.252-0.021-0.746c-0.003-0.507-0.008-1.237-0.015-2.191
					c-0.002-1.943-0.005-4.786-0.009-8.454c0.013-7.37,0.032-18.043,0.056-31.321c0.093-26.585,0.223-63.588,0.37-105.322
					l0.323,0.251c-6.14,1.594-12.628,3.277-19.207,4.985c-6.46,1.675-12.831,3.327-18.857,4.89l0.193-0.254
					c0.257,20.923,0.187,40.661,0.089,58.498c-0.107,17.833-0.202,33.768-0.282,47.093c-0.054,13.321-0.051,24.026-0.018,31.402
					c0.016,3.678,0.028,6.529,0.036,8.476c0,0.957,0,1.689,0,2.197c-0.003,0.495-0.017,0.748-0.017,0.748s-0.019-0.253-0.033-0.747
					c-0.011-0.508-0.027-1.24-0.048-2.197c-0.029-1.948-0.072-4.798-0.127-8.476c-0.092-7.376-0.148-18.082-0.141-31.404
					c0.048-13.325,0.104-29.261,0.168-47.094c0.069-17.836,0.119-37.572-0.145-58.489l-0.003-0.203l0.196-0.051
					c6.026-1.564,12.397-3.217,18.856-4.894c6.58-1.706,13.068-3.389,19.208-4.981l0.325-0.084l-0.002,0.336
					c-0.214,41.734-0.404,78.737-0.54,105.321c-0.091,13.277-0.164,23.95-0.214,31.32c-0.036,3.668-0.063,6.511-0.082,8.453
					c-0.015,0.954-0.026,1.684-0.033,2.191C173.226,470.159,173.208,470.411,173.208,470.411z"/>
			</g>
		</g>
		<g>
			<path style="fill:#E8505B;" d="M149.829,221.076c0,0-2.021,19.211,4.464,22.201c7.292,3.362,14.556,0.076,19.025-2.777
				c11.909-7.601,29.615-28.71,29.615-28.71l11.964,15.584c0,0-30.217,36.314-36.288,36.079c-3.959-0.153-10.147-4.034-13.974-6.717
				c-2.106-1.476-3.981-3.245-5.57-5.267l-5.226-6.648c-6.526,3.222-11.806,7.344-15.459,12.642c0,0-1.745-13.45,1.386-19.559
				c3.13-6.109,9.372-16.624,9.372-16.624L149.829,221.076z"/>
		</g>
		<g>
			<g>
				<path style="fill:#263238;" d="M139.373,238.432c0.008,0.004-0.032,0.116-0.119,0.33c-0.099,0.239-0.228,0.55-0.39,0.942
					c-0.27,0.854-0.67,2.119-0.894,3.811c-0.5,3.366-0.63,8.343,0.01,14.403l-0.356-0.07c1.48-2.622,3.712-5.145,6.475-7.38
					c2.753-2.255,5.967-4.323,9.576-6.072l0.164-0.08l0.124,0.144c2.105,2.451,4.334,5.005,6.691,7.589
					c2.35,2.584,4.876,5.185,7.887,7.279c1.412,0.982,2.917,1.8,4.489,2.374c0.787,0.278,1.591,0.51,2.396,0.648
					c0.808,0.125,1.623,0.156,2.425,0.09c3.249-0.298,6.013-2.16,8.282-4.122l-0.018,0.017c8.373-8.928,15.562-16.593,20.685-22.055
					c2.545-2.687,4.576-4.83,5.997-6.329c0.686-0.711,1.224-1.269,1.614-1.673c0.172-0.172,0.311-0.312,0.424-0.424
					c0.097-0.094,0.149-0.139,0.154-0.134c0.005,0.005-0.036,0.06-0.123,0.163c-0.104,0.12-0.234,0.269-0.393,0.452
					c-0.376,0.417-0.894,0.993-1.556,1.728c-1.396,1.522-3.391,3.698-5.892,6.426c-5.089,5.494-12.231,13.204-20.548,22.183
					l-0.009,0.01l-0.009,0.008c-1.166,1.007-2.424,1.984-3.854,2.755c-1.415,0.785-3.017,1.352-4.708,1.507
					c-0.845,0.071-1.704,0.039-2.554-0.091c-0.85-0.145-1.674-0.383-2.489-0.671c-1.623-0.592-3.168-1.432-4.608-2.434
					c-3.067-2.133-5.617-4.768-7.969-7.361c-2.36-2.596-4.583-5.155-6.685-7.618l0.288,0.064c-3.557,1.71-6.77,3.757-9.498,5.97
					c-2.745,2.197-4.954,4.668-6.423,7.22l-0.298,0.519l-0.057-0.588c-0.597-6.106-0.408-11.096,0.159-14.481
					c0.258-1.699,0.695-2.969,1.001-3.817c0.183-0.414,0.342-0.72,0.443-0.928C139.308,238.531,139.365,238.428,139.373,238.432z"/>
			</g>
		</g>
		<g style="opacity:0.3;">
			<g>
				<path d="M140.111,254.624c-0.459,0.76-0.059,2.531,0.739,2.922c0.798,0.39,1.789,0.105,2.486-0.446
					c0.697-0.551,1.173-1.325,1.681-2.054c1.197-1.719,2.639-3.266,4.27-4.58c1.611-1.298,3.825-2.398,5.674-1.471
					c1.229,0.616,1.897,1.946,2.5,3.181c2.505,5.133,5.52,10.359,10.427,13.281c4.931,2.937,11.22,3.065,16.631,1.151
					c5.411-1.914,10.009-5.69,13.719-10.069c3.71-4.379,6.614-9.371,9.487-14.34c2.261-3.91,4.556-7.937,5.26-12.398
					c-0.627,0.351-2.081,2.595-2.708,2.946c0,0-23.304,25.673-25.499,26.991s-8.23,10.195-25.342-8.979l-5.659-6.139
					C153.777,244.619,143.002,249.836,140.111,254.624z"/>
			</g>
		</g>
		<g>
			
				<rect x="176.188" y="307.985" transform="matrix(0.9885 0.1515 -0.1515 0.9885 49.4511 -25.0628)" style="fill:#FFFFFF;" width="25.929" height="7.828"/>
		</g>
		<g>
			<g>
				<path style="fill:#FFBE9D;" d="M271.882,327.839l-40.044,9.667l4.619,37.737l-76.597,57.525
					c-3.066,0.429-6.199,0.922-7.942,1.358c-4.19,1.048-11.587,11.556-13.682,12.604l-14.927,11.522c0,0-1.309,5.238,5.499,4.19
					c6.809-1.048,14.403-6.285,15.189-6.285c0.786,0,3.171,1.596,2.045,4.976c-1.003,3.007-5.107,13.317-5.107,13.317l-5.063,9.302
					c0,0,21.915,0.716,28.046-7.415c4.162-5.52,16.975-21.172,16.975-21.172s90.162-44.358,95.574-53.644
					C283.818,388.911,271.882,327.839,271.882,327.839z"/>
			</g>
			<g>
				<g>
					<path style="fill:#EB996E;" d="M253.44,391.502c-0.112-0.007,0.221-1.603-0.18-4.124c-0.373-2.486-1.695-5.947-4.574-8.563
						c-2.891-2.604-6.467-3.574-8.977-3.698c-2.548-0.148-4.102,0.342-4.121,0.232c-0.008-0.028,0.368-0.169,1.076-0.328
						c0.707-0.162,1.757-0.3,3.061-0.272c2.576,0.031,6.303,0.971,9.311,3.68c2.994,2.722,4.301,6.336,4.589,8.896
						c0.157,1.294,0.125,2.353,0.035,3.073C253.572,391.118,253.469,391.507,253.44,391.502z"/>
				</g>
			</g>
			<g>
				<g>
					<path style="fill:#EB996E;" d="M153.882,469.686c0.066,0.019-0.121,0.984-0.526,2.524c-0.414,1.532-1.046,3.667-2.213,5.833
						c-1.163,2.175-2.801,3.814-4.219,4.608c-0.706,0.401-1.33,0.626-1.772,0.718c-0.441,0.099-0.692,0.104-0.697,0.074
						c-0.026-0.096,0.971-0.249,2.276-1.106c1.306-0.839,2.827-2.438,3.954-4.543c1.136-2.106,1.817-4.191,2.318-5.69
						C153.497,470.599,153.81,469.665,153.882,469.686z"/>
				</g>
			</g>
			<g>
				<g>
					<path style="fill:#EB996E;" d="M164.503,466.197c0.063,0.023-0.204,0.963-0.773,2.436c-0.568,1.472-1.459,3.467-2.62,5.58
						c-1.164,2.112-2.374,3.932-3.314,5.199c-0.94,1.268-1.591,1.996-1.644,1.956c-0.061-0.047,0.485-0.852,1.342-2.165
						c0.857-1.313,2.007-3.147,3.161-5.24c1.151-2.093,2.086-4.046,2.737-5.472C164.042,467.063,164.431,466.17,164.503,466.197z"/>
				</g>
			</g>
		</g>
		<g>
			<g>
				<path style="fill:#263238;" d="M164.212,400.903c0.036-0.003,0.098,0.45,0.179,1.272c0.087,0.822,0.159,2.016,0.2,3.492
					c0.085,2.953-0.049,7.05-0.693,11.519c-0.652,4.47-1.687,8.437-2.607,11.244c-0.458,1.405-0.866,2.529-1.183,3.292
					c-0.311,0.765-0.499,1.181-0.532,1.169c-0.034-0.013,0.09-0.453,0.342-1.237c0.257-0.782,0.611-1.92,1.022-3.331
					c0.826-2.821,1.796-6.772,2.443-11.21c0.639-4.438,0.83-8.501,0.84-11.441c0.007-1.47-0.009-2.661-0.034-3.484
					C164.17,401.363,164.176,400.906,164.212,400.903z"/>
			</g>
		</g>
		<g>
			<g>
				<path style="fill:#263238;" d="M142.535,412.914c0.072-0.023,0.529,1.189,1.266,3.148c0.736,1.958,1.766,4.658,2.973,7.61
					c1.21,2.953,2.368,5.599,3.217,7.512c0.848,1.913,1.372,3.098,1.304,3.132c-0.061,0.031-0.703-1.098-1.638-2.975
					c-0.936-1.877-2.152-4.509-3.365-7.471c-1.212-2.962-2.19-5.691-2.839-7.685C142.804,414.189,142.47,412.935,142.535,412.914z"
					/>
			</g>
		</g>
		<g>
			<g>
				<path style="fill:#263238;" d="M136.735,438.798c0.004,0.018-0.213,0.081-0.631,0.186c-0.472,0.112-1.08,0.257-1.834,0.436
					c-0.796,0.191-1.774,0.407-2.921,0.601c-1.145,0.202-2.444,0.47-3.898,0.649c-1.449,0.21-3.039,0.43-4.756,0.575
					c-1.712,0.197-3.551,0.283-5.485,0.397c-3.871,0.149-8.136,0.126-12.597-0.199c-4.46-0.355-8.68-0.98-12.484-1.715
					c-1.894-0.407-3.699-0.77-5.362-1.225c-1.675-0.404-3.213-0.862-4.614-1.289c-1.41-0.398-2.653-0.86-3.754-1.233
					c-1.104-0.366-2.038-0.728-2.796-1.038c-0.717-0.291-1.297-0.526-1.746-0.709c-0.397-0.167-0.602-0.263-0.595-0.28
					c0.007-0.017,0.225,0.047,0.633,0.182c0.458,0.159,1.047,0.363,1.778,0.616c0.767,0.28,1.709,0.613,2.819,0.952
					c1.107,0.346,2.354,0.782,3.765,1.156c1.403,0.404,2.94,0.839,4.613,1.223c1.66,0.435,3.461,0.781,5.349,1.173
					c3.792,0.706,7.993,1.312,12.432,1.666c4.439,0.323,8.683,0.361,12.537,0.239c1.926-0.101,3.758-0.169,5.465-0.348
					c1.712-0.125,3.297-0.323,4.745-0.509c1.452-0.155,2.75-0.397,3.897-0.571c1.148-0.167,2.13-0.353,2.931-0.513
					c0.761-0.14,1.375-0.252,1.851-0.34C136.506,438.81,136.731,438.78,136.735,438.798z"/>
			</g>
		</g>
		<g>
			<g>
				<path style="fill:#263238;" d="M132.923,421.411c-0.069,0.126-2.195-0.898-4.749-2.288c-2.555-1.391-4.569-2.62-4.501-2.746
					c0.069-0.126,2.195,0.898,4.75,2.288C130.977,420.055,132.992,421.285,132.923,421.411z"/>
			</g>
		</g>
		<g>
			<g>
				<path style="fill:#263238;" d="M276.116,326.869c0.002,0.007-0.082,0.035-0.247,0.082c-0.188,0.051-0.431,0.116-0.737,0.199
					c-0.679,0.173-1.638,0.418-2.867,0.731c-2.535,0.627-6.183,1.529-10.756,2.66c-9.224,2.241-22.174,5.387-37.202,9.037
					l-0.263,0.064l-0.041-0.268c-1.056-6.872-2.492-14.286-3.879-22c-0.913-5.149-1.703-10.199-2.241-15.106
					c-0.532-4.908-0.787-9.668-0.85-14.203c-0.058-4.532,0.111-8.862,0.749-12.859c0.628-3.995,1.743-7.642,3.28-10.73
					c1.567-3.073,3.52-5.56,5.516-7.43c2.004-1.867,4.021-3.143,5.773-3.936c1.756-0.801,3.228-1.122,4.215-1.325
					c0.5-0.074,0.884-0.113,1.141-0.143c0.257-0.028,0.389-0.038,0.39-0.029c0.001,0.009-0.129,0.037-0.384,0.082
					c-0.279,0.048-0.652,0.112-1.128,0.194c-0.975,0.235-2.425,0.585-4.15,1.406c-1.721,0.813-3.698,2.099-5.659,3.964
					c-1.953,1.867-3.861,4.34-5.387,7.383c-1.495,3.057-2.579,6.67-3.183,10.632c-0.613,3.965-0.767,8.267-0.695,12.786
					c0.076,4.521,0.341,9.262,0.878,14.154c0.543,4.891,1.335,9.928,2.247,15.071c1.386,7.705,2.815,15.13,3.858,22.015
					l-0.304-0.204c15.045-3.578,28.011-6.66,37.245-8.857c4.587-1.071,8.247-1.925,10.79-2.519c1.237-0.279,2.202-0.497,2.886-0.652
					c0.31-0.065,0.557-0.117,0.747-0.158C276.028,326.875,276.115,326.862,276.116,326.869z"/>
			</g>
		</g>
	</g>
</g>
</svg>
